<svg xmlns="http://www.w3.org/2000/svg" width="14.888" height="16.62" viewBox="0 0 14.888 16.62">
  <path id="Path_5006" data-name="Path 5006" d="M17.957,958.362A3.249,3.249,0,0,0,14.8,961.7v.333h-.874a2.086,2.086,0,0,0-2,1.88l-.9,8.137a1.681,1.681,0,0,0,1.636,1.936H23.248a1.681,1.681,0,0,0,1.636-1.936l-.9-8.137a2.09,2.09,0,0,0-2.009-1.88h-.868V961.7A3.244,3.244,0,0,0,17.957,958.362Zm0,.46A2.776,2.776,0,0,1,20.65,961.7v.333H15.258V961.7A2.781,2.781,0,0,1,17.957,958.823Zm-4.034,3.667H14.8v1.387a.712.712,0,0,0-.445.666.674.674,0,1,0,1.347,0,.714.714,0,0,0-.44-.666v-1.387H20.65v1.387a.714.714,0,0,0-.44.666.674.674,0,1,0,1.347,0,.712.712,0,0,0-.445-.666v-1.387h.868a1.652,1.652,0,0,1,1.552,1.47l.9,8.137a1.2,1.2,0,0,1-1.18,1.426H12.659a1.2,1.2,0,0,1-1.18-1.426l.9-8.137A1.64,1.64,0,0,1,13.922,962.489Z" transform="translate(-10.51 -957.862)" fill="none" stroke="#fff" stroke-width="1"/>
</svg>
