<svg xmlns="http://www.w3.org/2000/svg" width="18.535" height="15.047" viewBox="0 0 18.535 15.047">
  <path id="Path_8417" data-name="Path 8417" d="M16.306,6.025h-2.68V5.75A2.229,2.229,0,0,0,11.4,3.522H7.136A2.229,2.229,0,0,0,4.908,5.75v.275H2.228A2.228,2.228,0,0,0,0,8.253v8.087a2.229,2.229,0,0,0,2.228,2.228H16.307a2.229,2.229,0,0,0,2.228-2.228V8.253A2.229,2.229,0,0,0,16.306,6.025ZM9.266,16.258a4.209,4.209,0,1,1,4.209-4.209A4.213,4.213,0,0,1,9.266,16.258Zm2.228-4.209A2.228,2.228,0,1,1,9.266,9.821,2.232,2.232,0,0,1,11.494,12.049Z" transform="translate(0 -3.522)" fill="#fff"/>
</svg>
