<svg xmlns="http://www.w3.org/2000/svg" width="81.27" height="75.61" viewBox="0 0 81.27 75.61">
  <g id="Screenshot_2023-03-29_at_11.37.37_AM" data-name="Screenshot 2023-03-29 at 11.37.37 AM" transform="translate(-54.312 -53.193)">
    <path id="Path_8401" data-name="Path 8401" d="M160.163,130.04q.05.56.05,1.631,0,10.246,0,20.491l0,2.468a.074.074,0,0,0,.025.055.791.791,0,0,0,.637.223.893.893,0,0,0,.4-.179q3.028-2.149,6.044-4.314a2.873,2.873,0,0,1,2.92-.4,5.8,5.8,0,0,1,1.062.643q2.872,2.054,5.743,4.112a.887.887,0,0,0,.806.1.1.1,0,0,0,.069-.091q.071-7.195.112-14.429,0-.535.017-1.334.02-1.184.021-2.368,0-2.993.049-5.986a5.539,5.539,0,0,1,.033-.631h15.356a3.35,3.35,0,0,1-.07.51q-1.206,5.581-2.838,11.054a119.941,119.941,0,0,1-4.2,11.79,91.229,91.229,0,0,1-4.723,9.7,69.327,69.327,0,0,1-5.743,8.632,54.168,54.168,0,0,1-4.752,5.319,44.994,44.994,0,0,1-6.5,5.317,38.617,38.617,0,0,1-5.463,3.052l-1.809.828a.818.818,0,0,1-.217.037q-.734.024-1.467.023-7.345-.008-14.69-.008a1.82,1.82,0,0,0-.686.1,1.161,1.161,0,0,0,.5,2.224q4.043.013,8.086.018a.208.208,0,0,1-.146.1q-.607.163-1.214.322-.626.163-1.223.276a82.993,82.993,0,0,1-10.187,1.281q-1.641.1-3.285.134h-.131a.355.355,0,0,1-.019-.133q0-30.268,0-60.536a.033.033,0,0,1,.033-.033Z" transform="translate(-78.422 -76.844)" fill="#efe9ff"/>
    <path id="Path_8402" data-name="Path 8402" d="M544,130.04h12.572a.577.577,0,0,1,.013.31,41.816,41.816,0,0,1-2.144,7.182,38.49,38.49,0,0,1-10.027,14.41.969.969,0,0,1-.36.221q0-10.245,0-20.491Q544.05,130.6,544,130.04Z" transform="translate(-462.26 -76.844)" fill="#916ef5"/>
    <path id="Path_8403" data-name="Path 8403" d="M557.271,130.04h5.419a5.54,5.54,0,0,0-.033.631q-.049,2.992-.049,5.986,0,1.184-.021,2.368-.014.8-.017,1.334-.041,7.234-.112,14.429a.1.1,0,0,1-.069.091.887.887,0,0,1-.806-.1q-2.87-2.058-5.743-4.112a5.805,5.805,0,0,0-1.062-.643,2.873,2.873,0,0,0-2.92.4q-3.016,2.165-6.044,4.314a.893.893,0,0,1-.4.179.791.791,0,0,1-.637-.223.074.074,0,0,1-.025-.055l0-2.468a.969.969,0,0,0,.36-.221,38.489,38.489,0,0,0,10.027-14.41,41.811,41.811,0,0,0,2.144-7.182A.577.577,0,0,0,557.271,130.04Z" transform="translate(-462.96 -76.844)" fill="#7f57f1"/>
    <path id="Path_8404" data-name="Path 8404" d="M193.757,130l12,0a.037.037,0,0,1,.037.037q-.025,19.4-.017,38.761,0,.518.005,1.334.013,1.917-.005,3.835a.131.131,0,0,1-.02.06.122.122,0,0,0-.016.057,16.981,16.981,0,0,0-11.552-1.915,16.922,16.922,0,0,0-13.637,14.87,16.188,16.188,0,0,0,.035,3.8,16.66,16.66,0,0,0,4.33,9.308,16.9,16.9,0,0,0,2.789,2.446.886.886,0,0,1,.129.118,1.37,1.37,0,0,1-.35.036H133.034a.034.034,0,0,1-.034-.034l0-12h.131q1.644-.03,3.285-.134a83,83,0,0,0,10.187-1.281q.6-.113,1.223-.276.608-.159,1.214-.322a.208.208,0,0,0,.146-.1q5.293,0,10.587,0a1.162,1.162,0,0,0,.949-.422,1.2,1.2,0,0,0,.256-.533,1.067,1.067,0,0,0-.055-.612,1.113,1.113,0,0,0-.776-.729,7.614,7.614,0,0,0-.984-.053q-.714-.014-1.429.01a.069.069,0,0,1-.045-.012.138.138,0,0,1-.034-.036l1.809-.828a38.616,38.616,0,0,0,5.463-3.053,45,45,0,0,0,6.5-5.317,54.173,54.173,0,0,0,4.752-5.319,69.327,69.327,0,0,0,5.743-8.632,91.231,91.231,0,0,0,4.723-9.7,119.944,119.944,0,0,0,4.2-11.79q1.631-5.472,2.838-11.054A3.351,3.351,0,0,0,193.757,130Zm-32.765,64.615a1.16,1.16,0,0,0-1.16-1.16H141.081a1.16,1.16,0,0,0-1.16,1.16v.029a1.16,1.16,0,0,0,1.16,1.16h18.751a1.16,1.16,0,0,0,1.16-1.16Z" transform="translate(-78.67 -76.807)" fill="#d4c7f8"/>
    <path id="Path_8405" data-name="Path 8405" d="M1060.185,760.131a17.045,17.045,0,0,1,6.835,7.353q.294.6.532,1.222a16.776,16.776,0,0,1,.641,10.17q-.157.649-.373,1.28a16.961,16.961,0,0,1-11,10.745q-.637.2-1.289.344a17.217,17.217,0,0,1-7.034.1.337.337,0,0,1,.1-.068,2.444,2.444,0,0,0,.32-.084q.233-.078.315-.1a16.871,16.871,0,0,0,11.723-11.118q.214-.649.361-1.282a16.978,16.978,0,0,0,.439-3.518,16.643,16.643,0,0,0-1.63-7.62,16.411,16.411,0,0,0-2.055-3.285,16.979,16.979,0,0,0-9.3-5.906.182.182,0,0,1-.137-.143A16.981,16.981,0,0,1,1060.185,760.131Z" transform="translate(-933.113 -662.854)" fill="#d01f4c"/>
    <path id="Path_8406" data-name="Path 8406" d="M858.343,762.29a.182.182,0,0,0,.137.143,16.978,16.978,0,0,1,9.3,5.906,16.4,16.4,0,0,1,2.055,3.285,16.643,16.643,0,0,1,1.63,7.62,16.987,16.987,0,0,1-.439,3.518q-.148.634-.362,1.282a16.871,16.871,0,0,1-11.723,11.118q-.082.022-.315.1a2.449,2.449,0,0,1-.32.084.336.336,0,0,0-.1.068,16.618,16.618,0,0,1-5.89-2.395,3.547,3.547,0,0,0-.329-.189.891.891,0,0,0-.129-.118,16.9,16.9,0,0,1-2.789-2.446,16.66,16.66,0,0,1-4.33-9.308,16.185,16.185,0,0,1-.035-3.8,16.894,16.894,0,0,1,13.637-14.87Zm.058,14.828q.721.712,1.405,1.4a.078.078,0,0,1,0,.109q-2.936,2.924-5.767,5.782a1.537,1.537,0,0,0-.347.474,1.166,1.166,0,0,0-.063.689,1.144,1.144,0,0,0,.494.741,1.1,1.1,0,0,0,.725.177,1.129,1.129,0,0,0,.471-.143,1.916,1.916,0,0,0,.395-.31l5.764-5.764a.06.06,0,0,1,.042-.018.059.059,0,0,1,.042.018l5.615,5.646a2.52,2.52,0,0,0,.54.45,1.143,1.143,0,0,0,.725.107,1.193,1.193,0,0,0,.479-.189,1.069,1.069,0,0,0,.356-.393,1.115,1.115,0,0,0-.221-1.422q-2.9-2.918-5.83-5.854a.068.068,0,0,1-.02-.048.066.066,0,0,1,.02-.047l5.645-5.646a2.319,2.319,0,0,0,.449-.559,1.063,1.063,0,0,0,.077-.746,1.213,1.213,0,0,0-.593-.773,1.081,1.081,0,0,0-.958-.057,1.275,1.275,0,0,0-.417.27q-.153.141-.362.35l-5.507,5.507a.057.057,0,0,1-.081,0q-2.966-2.956-5.908-5.875a1.076,1.076,0,0,0-.83-.337,1.233,1.233,0,0,0-.7.241,1.06,1.06,0,0,0-.417.663,1.215,1.215,0,0,0,.362,1.164Q856.186,774.932,858.4,777.118Z" transform="translate(-742.823 -666.928)" fill="#e42755"/>
    <path id="Path_8407" data-name="Path 8407" d="M984.168,894.2q-2.215-2.186-4.41-4.393a1.215,1.215,0,0,1-.362-1.164,1.06,1.06,0,0,1,.417-.663,1.233,1.233,0,0,1,.7-.241,1.076,1.076,0,0,1,.83.337q2.941,2.919,5.908,5.875a.057.057,0,0,0,.081,0l5.507-5.507q.209-.209.362-.35a1.277,1.277,0,0,1,.417-.27,1.081,1.081,0,0,1,.958.057,1.214,1.214,0,0,1,.593.773,1.064,1.064,0,0,1-.077.746,2.318,2.318,0,0,1-.449.559l-5.645,5.645a.066.066,0,0,0-.02.048.067.067,0,0,0,.02.048q2.929,2.936,5.83,5.854a1.116,1.116,0,0,1,.221,1.422,1.07,1.07,0,0,1-.356.393,1.2,1.2,0,0,1-.479.189,1.143,1.143,0,0,1-.725-.107,2.517,2.517,0,0,1-.54-.45l-5.615-5.646a.059.059,0,0,0-.042-.018.061.061,0,0,0-.043.018l-5.764,5.763a1.916,1.916,0,0,1-.395.31,1.13,1.13,0,0,1-.471.143,1.1,1.1,0,0,1-.725-.177,1.144,1.144,0,0,1-.494-.741,1.168,1.168,0,0,1,.063-.689,1.54,1.54,0,0,1,.347-.474q2.832-2.858,5.768-5.782a.078.078,0,0,0,0-.109Q984.889,894.914,984.168,894.2Z" transform="translate(-868.59 -784.012)" fill="#fff"/>
    <path id="Path_8408" data-name="Path 8408" d="M254.43,972.71a.139.139,0,0,0,.034.036.069.069,0,0,0,.045.012q.714-.024,1.429-.01a7.618,7.618,0,0,1,.984.053,1.113,1.113,0,0,1,.776.729,1.068,1.068,0,0,1,.055.612,1.2,1.2,0,0,1-.256.533,1.162,1.162,0,0,1-.949.422q-5.294,0-10.587,0-4.044,0-8.086-.018a1.168,1.168,0,0,1-.5-2.224,1.82,1.82,0,0,1,.686-.1q7.345,0,14.69.008.734,0,1.467-.023A.817.817,0,0,0,254.43,972.71Z" transform="translate(-175.441 -863.315)" fill="#b7a7eb"/>
    <rect id="Rectangle_1816" data-name="Rectangle 1816" width="21.071" height="2.349" rx="1.174" transform="translate(61.251 116.652)" fill="#b7a7eb"/>
  </g>
</svg>
