<svg xmlns="http://www.w3.org/2000/svg" width="338.49" height="252.67" viewBox="0 0 338.49 252.67">
  <g id="Group_57783" data-name="Group 57783" transform="translate(-32.299 -74.102)">
    <g id="BACKGROUND" transform="translate(32.299 74.102)">
      <path id="Path_8308" data-name="Path 8308" d="M90.3,311.126s-42.15-29.791-54.285-80.5S42.4,118.437,77.531,87.379s98.352-10.141,126.453,15.846l28.1,25.988s26.824,14.578,61.949,13.311,66.42,46.271,74.722,83.667-11.5,86.837-11.5,86.837Z" transform="translate(-32.299 -71.853)" fill="#efe9ff"/>
      <path id="Path_8309" data-name="Path 8309" d="M71.339,321.145S41.961,305.179,34.3,268.137s25.546-70.891,28.739-89.412S59.2,137.213,88.583,119.331s81.747-11.5,101.545-15.967,42.789-35.126,82.385-28.1,77.916,28.1,79.832,74.083-12.773,47.261,1.915,72.168,20.437,42.15,13.412,67.7-21.714,32.571-21.714,32.571Z" transform="translate(-32.494 -74.222)" fill="#ece5ff" style="mix-blend-mode: multiply;isolation: isolate"/>
      <path id="Path_8310" data-name="Path 8310" d="M158.336,341.134c-1.827-1.915-28.63-55.563,1.219-104.739s104.776-43.428,134.624-24.269,44.469,44.067,47.514,70.252-17.056,67.058-17.056,67.058Z" transform="translate(-58.15 -102.515)" fill="#e7dfff" style="mix-blend-mode: multiply;isolation: isolate"/>
    </g>
    <g id="OBJECTS" transform="translate(57.964 91.11)">
      <g id="Group_57710" data-name="Group 57710" transform="translate(246.394 106.389)">
        <g id="Group_57704" data-name="Group 57704">
          <rect id="Rectangle_1808" data-name="Rectangle 1808" width="42.151" height="24.907" rx="5" fill="#ab8eff"/>
          <path id="Path_8311" data-name="Path 8311" d="M410.539,275.195,416,262.262H405.082Z" transform="translate(-389.463 -240.548)" fill="#ab8eff"/>
        </g>
        <g id="Group_57709" data-name="Group 57709" transform="translate(7.837 2.944)">
          <g id="Group_57707" data-name="Group 57707" transform="translate(13.108 1.103)">
            <g id="Group_57705" data-name="Group 57705">
              <path id="Path_8312" data-name="Path 8312" d="M411.984,243.5h9.857v1.442l4.832-2.786-4.832-2.786v1.442h-9.857Z" transform="translate(-411.984 -239.368)" fill="#442b8b"/>
            </g>
            <g id="Group_57706" data-name="Group 57706" transform="translate(0 8.356)">
              <path id="Path_8313" data-name="Path 8313" d="M426.673,251.638h-9.857V250.2l-4.832,2.786,4.832,2.786v-1.442h9.857Z" transform="translate(-411.984 -250.196)" fill="#fff"/>
            </g>
          </g>
          <g id="Group_57708" data-name="Group 57708">
            <path id="Path_8314" data-name="Path 8314" d="M402.056,251.655l-.469.171a14.912,14.912,0,0,1-2.222-3.488,12.516,12.516,0,0,1-.786-4.04l.343-.143-2.084-4.988a4.086,4.086,0,0,0-1.012,1.147c-1.18,1.993-1.063,5.052.124,8.04s2.455,5.654,4.769,7.33a4.574,4.574,0,0,0,3.446,1.019Z" transform="translate(-394.998 -238.219)" fill="#442b8b"/>
            <path id="Path_8315" data-name="Path 8315" d="M405.891,254.567l-.647.235,2.134,5.107a3.811,3.811,0,0,0,.644-.279,1.243,1.243,0,0,0,.561-1.548l-1.114-2.808A1.241,1.241,0,0,0,405.891,254.567Z" transform="translate(-397.337 -241.718)" fill="#442b8b"/>
            <path id="Path_8316" data-name="Path 8316" d="M399.247,238.012a4.934,4.934,0,0,0-.836.393l2.128,5.094.717-.3a1.24,1.24,0,0,0,.678-1.6l-1.119-2.872A1.238,1.238,0,0,0,399.247,238.012Z" transform="translate(-395.777 -237.939)" fill="#442b8b"/>
          </g>
        </g>
      </g>
      <g id="Group_57711" data-name="Group 57711" transform="translate(64.553 132.837)">
        <path id="Path_8317" data-name="Path 8317" d="M149.219,348.55V291.071s-.639-15.487,7.5-19.958,42.471-2.075,42.471-2.075V348.55Z" transform="translate(-149.207 -268.397)" fill="#916bfc"/>
      </g>
      <g id="Group_57748" data-name="Group 57748" transform="translate(70.496 32.039)">
        <g id="Group_57712" data-name="Group 57712" transform="translate(47.103 47.633)">
          <path id="Path_8318" data-name="Path 8318" d="M225.61,199.5s-2.076,17.4-2.874,18.84l-.8,1.437-3.992,2.715s7.664,10.856,17.084,12.613,8.621-3.832,8.621-3.832l-1.437-3.034,1.916-16.6S227.047,203.815,225.61,199.5Z" transform="translate(-217.946 -199.504)" fill="#ff9d8c"/>
        </g>
        <path id="Path_8319" data-name="Path 8319" d="M211.532,230.356l6.227-2.715s3.992,6.546,13.252,10.379,9.42,1.6,9.9,0a6.069,6.069,0,0,0-.16-3.353l.685-5.59,3.7,1.234L257.994,334.3l-33.05,1.6Z" transform="translate(-169.378 -158.295)" fill="#fff"/>
        <g id="Group_57713" data-name="Group 57713" transform="translate(72.65 70.89)">
          <path id="Path_8320" data-name="Path 8320" d="M251.05,229.641s2.235,5.163,4.311,17.3a412.745,412.745,0,0,1,4.47,46.622c.479,14.05.8,46.142.8,46.142H302.3c.479,0,3.353-15.807,3.353-15.807s-18.2-15.594-19.159-18.148c-.639-1.7-.32-33.263-3.034-47.792S277.235,240.5,269.89,236.88A159.378,159.378,0,0,0,251.05,229.641Z" transform="translate(-251.05 -229.641)" fill="#250d6b"/>
        </g>
        <g id="Group_57714" data-name="Group 57714" transform="translate(93.179 95.784)">
          <path id="Path_8321" data-name="Path 8321" d="M278.837,328.772a.385.385,0,0,1-.386-.386c0-1.141-.2-17.36-.4-33.045s-.4-31.908-.4-33.055a.386.386,0,1,1,.772,0c0,1.141.2,17.36.4,33.045s.4,31.908.4,33.055A.386.386,0,0,1,278.837,328.772Z" transform="translate(-277.653 -261.9)" fill="#8593b6"/>
        </g>
        <g id="Group_57715" data-name="Group 57715" transform="translate(11.019 158.754)">
          <path id="Path_8322" data-name="Path 8322" d="M171.506,343.5l-.319,22.193h48.538s2.076-18.84,1.277-20.6S171.506,343.5,171.506,343.5Z" transform="translate(-171.187 -343.499)" fill="#250d6b"/>
        </g>
        <g id="Group_57716" data-name="Group 57716" transform="translate(56.101 49.515)" style="mix-blend-mode: multiply;isolation: isolate">
          <path id="Path_8323" data-name="Path 8323" d="M238.863,218.422a25.368,25.368,0,0,0,6.791,3.647l1.139-9.874s-12.833-5.879-17.187-10.252C230.516,206.912,232.754,213.5,238.863,218.422Z" transform="translate(-229.606 -201.943)" fill="#8e9bbb"/>
        </g>
        <g id="Group_57717" data-name="Group 57717" transform="translate(51.984 11.645)">
          <path id="Path_8324" data-name="Path 8324" d="M260.583,156.446a34.55,34.55,0,0,1,3.992,12.772c.638,7.026,0,25.067-5.748,32.731s-17.723,5.429-23.151.8c-4.982-4.25-9.9-8.942-11.177-18.2s2.714-26.823,14.05-30.5S260.583,156.446,260.583,156.446Z" transform="translate(-224.271 -152.87)" fill="#ff9d8c"/>
        </g>
        <g id="Group_57725" data-name="Group 57725" transform="translate(60.681 157.455)">
          <g id="Group_57718" data-name="Group 57718">
            <path id="Path_8325" data-name="Path 8325" d="M277.559,355.274s-.563,0-1.42-.023c-.2-.008-.424,0-.656-.008-.826-.023-1.829-.046-2.84-.077l-.679-.023c-1-.023-1.86.1-2.662.054h-.023c-.17-.008-.417.015-.617.023a1.5,1.5,0,0,1-.255.008,3.75,3.75,0,0,1-1.057-.417,71.782,71.782,0,0,0-16.561-2.207c-7.131.031-13.528.517-14.57-.355-1.05-.887-1.682-9.847,4.406-10.433l7.486,2.84s17.093-2.03,23.359,2.593C277.752,351.87,277.559,355.274,277.559,355.274Z" transform="translate(-235.541 -341.815)" fill="#ff9d8c"/>
          </g>
          <g id="Group_57720" data-name="Group 57720" transform="translate(23.96 8.305)">
            <g id="Group_57719" data-name="Group 57719">
              <path id="Path_8326" data-name="Path 8326" d="M276.367,357.653c-.17-.008-.417.015-.617.023a7.241,7.241,0,0,0-.656-.88c-1.929-1.968-6.59-3.241-8.28-3.65a.29.29,0,0,1-.216-.347.3.3,0,0,1,.355-.216c2.462.594,7.686,2.115,9.168,4.607C276.167,357.26,276.29,357.5,276.367,357.653Z" transform="translate(-266.589 -352.577)" fill="#223a7a"/>
            </g>
          </g>
          <g id="Group_57722" data-name="Group 57722" transform="translate(26.163 6.362)">
            <g id="Group_57721" data-name="Group 57721">
              <path id="Path_8327" data-name="Path 8327" d="M280.385,357.047c-.224-.005-.455-.011-.678-.024-2.107-3.841-5.553-4.944-9.812-6.314l-.252-.083a.3.3,0,0,1-.184-.367.293.293,0,0,1,.367-.184l.245.083C274.574,351.6,278.2,352.764,280.385,357.047Z" transform="translate(-269.444 -350.06)" fill="#223a7a"/>
            </g>
          </g>
          <g id="Group_57724" data-name="Group 57724" transform="translate(28.6 4.624)">
            <g id="Group_57723" data-name="Group 57723">
              <path id="Path_8328" data-name="Path 8328" d="M284.6,356.618c-.2,0-.424,0-.656-.009a16.831,16.831,0,0,0-11.1-8.229.289.289,0,0,1-.238-.337.3.3,0,0,1,.337-.232C278.707,348.894,283.355,353.6,284.6,356.618Z" transform="translate(-272.601 -347.808)" fill="#223a7a"/>
            </g>
          </g>
        </g>
        <g id="Group_57726" data-name="Group 57726" transform="translate(44.533)">
          <path id="Path_8329" data-name="Path 8329" d="M226.127,173.2a14.945,14.945,0,0,0,5.988-6.387,18.168,18.168,0,0,0,2.155-8.941s4.47-.718,11.177,1.277,14.689,4.71,21.395.878,6.706-9.979,3.433-12.534c-3.666-2.861-10.937-1.117-10.937-1.117s2.794-2.714,1.277-4.311-7.025.479-7.025.479-6.706-5.349-19.4-4.71-18.761,9.5-19.479,19.4,2.874,19.8,2.874,19.8Z" transform="translate(-214.616 -137.779)" fill="#2d2051"/>
        </g>
        <g id="Group_57736" data-name="Group 57736" transform="translate(51.574 48.431)">
          <path id="Path_8336" data-name="Path 8336" d="M223.739,201.176s.639,2.475,4.311,5.349a42.574,42.574,0,0,0,8.995,4.976l.425-1.863s-5.508-2.395-8.063-5.029-2.874-4.072-2.874-4.072Z" transform="translate(-223.739 -200.538)" fill="#dee1eb"/>
        </g>
        <g id="Group_57737" data-name="Group 57737" transform="translate(63.42 56.148)">
          <path id="Path_8337" data-name="Path 8337" d="M241.614,210.544a4.616,4.616,0,0,1,4.811,3.711c.206,1.512-1.214,3.206-4.536,1.718C237.762,214.123,238.659,210.682,241.614,210.544Z" transform="translate(-239.09 -210.538)" fill="#223a7a"/>
        </g>
        <g id="Group_57738" data-name="Group 57738" transform="translate(47.263 0.521)">
          <path id="Path_8338" data-name="Path 8338" d="M224.779,168.722s1.276-9.176,7.425-15.408c11.735-11.894,21.714-11.176,21.714-11.176s-.08-1.677-3.832-2.954c-3.523-1.2-5.109-.559-5.109-.559s-9.66.8-17.8,9.819a38.232,38.232,0,0,0-9.021,20.516Z" transform="translate(-218.153 -138.455)" fill="#dee1eb"/>
        </g>
        <g id="Group_57741" data-name="Group 57741" transform="translate(40.7 29.491)">
          <g id="Group_57739" data-name="Group 57739">
            <path id="Path_8339" data-name="Path 8339" d="M221.959,176.175c-7.688-1.3-11.975,4.71-12.294,10.777s4.089,10.68,9.979,10.219C232.9,196.133,231.379,177.772,221.959,176.175Z" transform="translate(-209.649 -175.995)" fill="#fff"/>
          </g>
          <g id="Group_57740" data-name="Group 57740" transform="translate(3.027 3.326)">
            <path id="Path_8340" data-name="Path 8340" d="M219.027,192.258a5.238,5.238,0,0,1-4.725-2.816,5.838,5.838,0,0,1,.225-6.033.289.289,0,0,1,.478.326,5.256,5.256,0,0,0-.2,5.43,4.653,4.653,0,0,0,4.365,2.512,5.065,5.065,0,0,0,4.192-2.263,6.4,6.4,0,0,0,.633-5.67,4.316,4.316,0,0,0-4.307-2.832.289.289,0,0,1-.076-.573,4.839,4.839,0,0,1,4.923,3.2,6.991,6.991,0,0,1-.693,6.2,5.632,5.632,0,0,1-4.657,2.52Z" transform="translate(-213.571 -180.306)" fill="#818fb3"/>
          </g>
        </g>
        <g id="Group_57742" data-name="Group 57742" transform="translate(0 69.826)">
          <path id="Path_8341" data-name="Path 8341" d="M200.5,228.262s-23.311,5.748-31.453,15.008-11.975,54.924-12.134,63.386,5.748,11.975,9.26,14.37,19,6.706,31.453,7.344,24.269,0,24.269,0a16.586,16.586,0,0,1,1.876-6.705c1.776-3.7,4.031-4.47,4.031-4.47l-10.7-3.832s-1.874-33.564-4.79-49.815C208.961,244.867,200.5,228.262,200.5,228.262Z" transform="translate(-156.908 -228.262)" fill="#250d6b"/>
        </g>
        <g id="Group_57743" data-name="Group 57743" transform="translate(75.616 71.755)">
          <path id="Path_8342" data-name="Path 8342" d="M261.507,308.571a.373.373,0,0,1-.156-.033.385.385,0,0,1-.2-.509c2.184-4.927,4.447-14.6,5.721-21.389l.1-.548c.386-2,.866-4.48-.092-6.194-.489-.874-1.591-2.771-2.652-4.595-1.1-1.893-2.141-3.681-2.43-4.215-.562-1.043,1.208-3.827,3.771-7.646.691-1.033,1.29-1.923,1.639-2.527.913-1.58.3-3.028-.4-4.705l-.239-.577c-.638-1.567-1.364-3.137-2.065-4.654-.286-.62-.573-1.242-.856-1.866q-.563-1.237-1.132-2.513a147.294,147.294,0,0,0-7.577-15.254.386.386,0,0,1,.664-.394,147.885,147.885,0,0,1,7.617,15.333q.571,1.272,1.131,2.511.424.933.853,1.861c.705,1.525,1.435,3.1,2.079,4.687l.237.569c.718,1.709,1.461,3.477.355,5.39-.362.626-.966,1.527-1.666,2.57-1.337,1.992-4.117,6.137-3.733,6.849.282.523,1.32,2.307,2.418,4.194,1.063,1.828,2.169,3.73,2.659,4.606,1.1,1.96.586,4.6.177,6.716l-.1.544c-.465,2.472-2.923,15.128-5.775,21.56A.385.385,0,0,1,261.507,308.571Z" transform="translate(-254.894 -230.763)" fill="#8593b6"/>
        </g>
        <g id="Group_57744" data-name="Group 57744" transform="translate(39.75 70.478)">
          <path id="Path_8343" data-name="Path 8343" d="M228.144,309.55a.384.384,0,0,1-.273-.113c-1.815-1.828-10.564-16.978-11.215-19.827-.357-1.56.539-5.515,1.4-9.341.671-2.964,1.364-6.029,1.167-6.859-.295-1.24-2.532-3.068-4.7-4.836-2.614-2.135-5.316-4.342-5.839-6.332-.6-2.26-.086-16.411.25-25.774.121-3.367.216-6.026.216-6.975a.386.386,0,0,1,.385-.386h0a.386.386,0,0,1,.386.385c0,.963-.1,3.629-.217,7-.314,8.752-.84,23.4-.275,25.551.459,1.745,3.181,3.968,5.582,5.93,2.368,1.934,4.6,3.76,4.958,5.255.238,1-.412,3.878-1.165,7.206-.807,3.568-1.722,7.611-1.4,9,.639,2.793,9.228,17.659,11.01,19.455a.385.385,0,0,1-.274.657Z" transform="translate(-208.417 -229.107)" fill="#8593b6"/>
        </g>
        <g id="Group_57745" data-name="Group 57745" transform="translate(27.717 98.451)">
          <path id="Path_8344" data-name="Path 8344" d="M193.212,311.2a.445.445,0,0,1-.055,0,.387.387,0,0,1-.328-.436c.283-2.007,4.713-41.981,4.916-45.043a.382.382,0,0,1,.411-.36.386.386,0,0,1,.36.411c-.2,3.067-4.638,43.09-4.922,45.1A.385.385,0,0,1,193.212,311.2Z" transform="translate(-192.825 -265.356)" fill="#8593b6"/>
        </g>
        <g id="Group_57746" data-name="Group 57746" transform="translate(19.575 140.329)">
          <path id="Path_8345" data-name="Path 8345" d="M222.575,334.446a.382.382,0,0,1-.145-.029c-.982-.4-5.318-1.861-10.808-3.711-11.08-3.737-26.256-8.855-29.141-10.354a.386.386,0,1,1,.356-.684c2.833,1.472,18.6,6.789,29.032,10.307,5.5,1.856,9.848,3.321,10.851,3.727a.386.386,0,0,1-.145.744Z" transform="translate(-182.274 -319.623)" fill="#8593b6"/>
        </g>
        <g id="Group_57747" data-name="Group 57747" transform="translate(11.273 163.481)">
          <path id="Path_8346" data-name="Path 8346" d="M214.791,357.212c-9.751,0-28.656-1.759-43.018-6.838a.386.386,0,0,1,.257-.728c18.142,6.417,43.522,7.513,48.245,6.453a.386.386,0,0,1,.169.754A30.8,30.8,0,0,1,214.791,357.212Z" transform="translate(-171.515 -349.624)" fill="#8593b6"/>
        </g>
      </g>
      <g id="Group_57757" data-name="Group 57757" transform="translate(0 79.283)">
        <g id="Group_57756" data-name="Group 57756">
          <g id="Group_57749" data-name="Group 57749">
            <path id="Path_8347" data-name="Path 8347" d="M81.641,226.966c3.028,2.662,6.862,4.369,9.518,7.448,1.046,1.212,1.985,2.5,2.955,3.771.706.924,2.591,2.458,2.9,3.62.135.512.106-.181-.029-.695-.005-.022-.017-.042-.023-.064-.265-2.353-.455-4.715-.537-7.082s.065-4.731-.083-7.087c-.208-3.325-1.246-6.545-3.964-8.628-1.328-1.018-3.036-1.638-4.257-2.767-1.159-1.073-.695-2.3-.013-3.5a11.915,11.915,0,0,0,1.66-3.508,6.193,6.193,0,0,0-1.012-4.223c-1.58-2.654-5.087-5.614-8.408-5.218-2.77.332-3.084,3.526-3.044,5.752.039,2.164.253,4.321.274,6.486.021,2.224-.357,4.406-.389,6.62C77.132,221.66,78.873,224.531,81.641,226.966Z" transform="translate(-68.211 -199)" fill="#bda5ff"/>
            <path id="Path_8348" data-name="Path 8348" d="M107.115,266.257a35.535,35.535,0,0,1,3-5.718,44.024,44.024,0,0,0,4.536-7.761c1.119-2.868.955-5.934,1.065-8.954.08-2.22.74-4.433.562-6.657-.085-1.067-.7-2.794-2.081-2.617-1.074.137-1.712,1.469-2.125,2.319a40.838,40.838,0,0,0-1.756,4.621c-.208.609-.408,1.229-.672,1.816-.154.342-.642,1.176-1.1,1.062-.784-.194-.072-3.4.045-3.964.586-2.848,1.468-5.5,1.59-8.429.177-4.251-.153-9.311-4.311-11.635-1.087-.607-2.463-.969-3.5-.061a5.82,5.82,0,0,0-1.458,3.73c-.465,3.926.46,7.643,1.718,11.336,1.039,3.05,2.277,6.2,2.367,9.458.086,3.139-1.547,5.921-2.313,8.886a28.111,28.111,0,0,0-.975,8.763c-.008,1.918.062,3.814.2,5.726.129,1.758.282,3.515.5,5.264.044.353.084.723.131,1.093-.675-1.626-.911-3.488-1.47-5.123-.994-2.9-2.148-5.748-3.1-8.667a71.714,71.714,0,0,0-2.572-7.158,17.341,17.341,0,0,0-3.975-6.07A5.8,5.8,0,0,0,87.511,246a10.8,10.8,0,0,0-2.686.571,3.022,3.022,0,0,1-2.886-.508c-2.98-2.29-3.886-6.4-6.092-9.3-1.645-2.163-5.549-5.85-8.419-3.491-1.522,1.251-1.942,3.669-1.862,5.522a13.384,13.384,0,0,0,2.327,6.4c1.287,2.067,2.949,3.919,4.132,6.044a6.415,6.415,0,0,1,.7,3.876,9.245,9.245,0,0,0,.234,3.913c1.366,3.866,5.631,3.328,8.948,3.428a24.828,24.828,0,0,1,7.016,1.158,7.8,7.8,0,0,1,5.114,5.035c.658,1.823,1.011,3.893,2.252,5.441a5.787,5.787,0,0,0,2.206,1.642c1.293.572,5.238.82,5.266.461a17.756,17.756,0,0,1,1.028-3.623C105.455,270.423,106.245,268.33,107.115,266.257Z" transform="translate(-65.556 -203.733)" fill="#bda5ff"/>
            <path id="Path_8349" data-name="Path 8349" d="M136.612,277.059c-.343-2.21-.277-4.646-1.323-6.675a.3.3,0,0,0-.408-.107c-.75.416-.781,1.628-.843,2.37-.1,1.232-.025,2.466-.177,3.694a27.618,27.618,0,0,1-1.542,6.416,6.9,6.9,0,0,1-4.8,4.324,12.149,12.149,0,0,0-4.2,1.854,8.836,8.836,0,0,0-2.465,3.4,50.95,50.95,0,0,0-3.009,11.081c-.484,2.5-.879,5.015-1.486,7.492a73.513,73.513,0,0,0-1.607,7.467c-.059.127-.121.254-.175.383-.159.378.432.582.637.268,2.4-3.69,5.319-7,9.3-9.037,1.8-.918,4.19-1.108,5.691-2.55a4.991,4.991,0,0,0,1.128-4.264,13.4,13.4,0,0,0-2.143-5.246,4.433,4.433,0,0,1-.955-3.017,3.889,3.889,0,0,1,1.948-2.365c1.657-1.029,3.594-1.491,4.95-2.973a8.129,8.129,0,0,0,2.1-4.946A34.108,34.108,0,0,0,136.612,277.059Z" transform="translate(-76.74 -215.264)" fill="#bda5ff"/>
            <path id="Path_8350" data-name="Path 8350" d="M96.783,293.048a31.8,31.8,0,0,0-7.543-6.984c-1.533-1.019-5.15-3.027-5.88-.024-.428,1.761,1.295,3.492,2.429,4.6,1.7,1.658,3.675,3.089,5.113,5-1.78.569-3.64.679-5.187,1.91-1.831,1.457-2.652,4.271-.837,6.056a11.518,11.518,0,0,0,3.16,1.937c1.432.694,2.891,1.323,4.359,1.935a36.749,36.749,0,0,1,9.083,4.837c2.756,2.21,5.346,5.948,5.564,9.554.022.344-.11.031.1-.127.112.1.489-.079.488-.281a38.037,38.037,0,0,0-3.2-15.348A64.106,64.106,0,0,0,96.783,293.048Z" transform="translate(-69.605 -218.51)" fill="#bda5ff"/>
          </g>
          <g id="Group_57750" data-name="Group 57750" transform="translate(19.843 24.367)">
            <path id="Path_8351" data-name="Path 8351" d="M91.3,230.932c1.167,2.422,2.388,4.788,3.683,7.151a57.359,57.359,0,0,1,3.426,6.958c1.149,2.987,2.354,5.931,3.568,8.891a87.707,87.707,0,0,1,3.3,9.416A111.6,111.6,0,0,1,109,282.493a77.769,77.769,0,0,1,.39,9.9c-.071,2.581-.362,5.135-.6,7.7a45.538,45.538,0,0,0-.211,8.055c.187,2.241.543,4.9,2.282,6.5a.4.4,0,0,0,.625-.482c-2.067-4.238-1.951-8.858-1.556-13.454.218-2.537.521-5.061.607-7.608a76.155,76.155,0,0,0-.323-9.713,114.917,114.917,0,0,0-3.505-18.764,84.788,84.788,0,0,0-3.082-9.284c-1.2-3.044-2.591-6-3.757-9.061-2.107-5.531-5.319-10.435-8.162-15.589-.148-.268-.536-.032-.406.238Z" transform="translate(-91.27 -230.576)" fill="#765fbb"/>
          </g>
          <g id="Group_57751" data-name="Group 57751" transform="translate(37.326 47.63)">
            <path id="Path_8352" data-name="Path 8352" d="M114.266,283.039a45.785,45.785,0,0,1,2.049-11.748c.634-1.792,1.4-3.534,2.012-5.333.5-1.486,1.26-3.526.871-5.106a.182.182,0,0,0-.349,0c-.26.9-.232,1.893-.418,2.818a24.931,24.931,0,0,1-.706,2.662c-.6,1.861-1.374,3.645-2.049,5.477a27.1,27.1,0,0,0-1.687,11.231.139.139,0,0,0,.277,0Z" transform="translate(-113.924 -260.722)" fill="#765fbb"/>
          </g>
          <g id="Group_57752" data-name="Group 57752" transform="translate(14.312 46.535)">
            <path id="Path_8353" data-name="Path 8353" d="M84.118,259.568c1.6,3.862,6.405,4.085,9.906,4.95a9.282,9.282,0,0,1,5.67,4.45,34,34,0,0,1,3.238,7.793.024.024,0,0,0,.046-.013c-.979-4.629-2.381-10.2-7.154-12.357-3.824-1.726-8.863-.86-11.309-4.989-.12-.2-.494-.067-.4.167Z" transform="translate(-84.102 -259.302)" fill="#765fbb"/>
          </g>
          <g id="Group_57753" data-name="Group 57753" transform="translate(35.13 69.256)">
            <path id="Path_8354" data-name="Path 8354" d="M111.089,288.825c.191.257.364.525.561.777a2.094,2.094,0,0,0,.319.343.74.74,0,0,0,.445.227.1.1,0,0,0,.083-.145,1.533,1.533,0,0,0-.333-.3c-.114-.1-.231-.2-.342-.3-.224-.211-.428-.441-.647-.657-.042-.042-.123.015-.086.066Z" transform="translate(-111.079 -288.745)" fill="#43588e"/>
          </g>
          <g id="Group_57754" data-name="Group 57754" transform="translate(25.08 81.234)">
            <path id="Path_8355" data-name="Path 8355" d="M98.119,304.621a38.926,38.926,0,0,1,7.323,7.877,47.623,47.623,0,0,1,2.667,4.387,48.948,48.948,0,0,1,2.155,5.084c.052.131.29.133.272-.036-.383-3.632-2.684-6.746-4.526-9.767a23.316,23.316,0,0,0-3.426-4.145,30.468,30.468,0,0,0-4.217-3.721c-.188-.133-.428.174-.248.322Z" transform="translate(-98.055 -304.267)" fill="#765fbb"/>
          </g>
          <g id="Group_57755" data-name="Group 57755" transform="translate(38.874 77.284)">
            <path id="Path_8356" data-name="Path 8356" d="M124.159,299.176c-1.328.752-1.371,2.851-1.4,4.19-.049,2.574.587,4.991-.543,7.443-1.02,2.216-2.65,4.065-3.932,6.123-1.2,1.925-2.382,4.387-2.356,6.705,0,.134.207.209.269.073a27.948,27.948,0,0,0,1-3.35,14.065,14.065,0,0,1,1.637-3.456,57,57,0,0,0,3.747-5.705c1.053-2.166.9-4.311.83-6.658-.044-1.5-.194-3.9,1.013-5.014.189-.174-.053-.474-.271-.35Z" transform="translate(-115.93 -299.147)" fill="#765fbb"/>
          </g>
        </g>
        <path id="Path_8357" data-name="Path 8357" d="M110.487,331.154c-5.349-.074-15.541-.133-15.541-.133l2.522,18.722a8.489,8.489,0,0,0,8.412,7.356h9.213a8.489,8.489,0,0,0,8.413-7.356l2.522-18.722S115.837,331.08,110.487,331.154Z" transform="translate(-72.266 -229.14)" fill="#fff"/>
      </g>
      <g id="Group_57763" data-name="Group 57763" transform="translate(118.256 144.654)">
        <g id="Group_57761" data-name="Group 57761">
          <g id="Group_57758" data-name="Group 57758" transform="translate(59.058 1.384)">
            <path id="Path_8358" data-name="Path 8358" d="M414.833,286.355l-30.522,60.459-88.985.639L322.787,285.5Z" transform="translate(-295.325 -285.503)" fill="#f6f7fa"/>
          </g>
          <g id="Group_57759" data-name="Group 57759">
            <path id="Path_8359" data-name="Path 8359" d="M218.8,346.667l.017-4.839h57.6l26.5-58.118h92.125l2.316,2.236h-90l-27.542,60.672S218.8,346.507,218.8,346.667Z" transform="translate(-218.796 -283.71)" fill="#d9dee8"/>
          </g>
          <g id="Group_57760" data-name="Group 57760" transform="translate(111.464 29.873)">
            <path id="Path_8360" data-name="Path 8360" d="M384.129,328.145c-1.006,3.016-6.461,5.345-12.187,5.2s-9.551-2.7-8.547-5.719,6.461-5.345,12.187-5.2S385.134,325.13,384.129,328.145Z" transform="translate(-363.235 -322.42)" fill="#d9dee8"/>
          </g>
        </g>
        <g id="Group_57762" data-name="Group 57762" transform="translate(60.641 1.85)">
          <path id="Path_8361" data-name="Path 8361" d="M297.763,347.551a.4.4,0,0,1-.16-.035.386.386,0,0,1-.191-.511l27.645-60.9H415.3a.386.386,0,1,1,0,.772H325.553l-27.439,60.446A.386.386,0,0,1,297.763,347.551Z" transform="translate(-297.377 -286.107)" fill="#fff"/>
        </g>
      </g>
      <g id="Group_57765" data-name="Group 57765" transform="translate(3.281 207.561)">
        <g id="Group_57764" data-name="Group 57764" transform="translate(5.109 4.631)">
          <rect id="Rectangle_1809" data-name="Rectangle 1809" width="105.856" height="23.47" fill="#8274ac"/>
          <rect id="Rectangle_1810" data-name="Rectangle 1810" width="190.456" height="23.47" transform="translate(105.251)" fill="#9183b9"/>
        </g>
        <path id="Path_8362" data-name="Path 8362" d="M182.285,371.228H76.429v4.311H372.136v-4.311Z" transform="translate(-71.32 -366.597)" fill="#bdc4d7" style="mix-blend-mode: multiply;isolation: isolate"/>
        <rect id="Rectangle_1811" data-name="Rectangle 1811" width="115.596" height="5.748" fill="#8e82b1"/>
        <rect id="Rectangle_1812" data-name="Rectangle 1812" width="190.456" height="5.748" transform="translate(114.991)" fill="#9f96b9"/>
      </g>
      <g id="Group_57767" data-name="Group 57767" transform="translate(45.965 57.39)">
        <rect id="Rectangle_1813" data-name="Rectangle 1813" width="45.743" height="27.03" rx="5.426" fill="#fff"/>
        <path id="Path_8363" data-name="Path 8363" d="M194.043,186.392l-14.035-5.922v11.844Z" transform="translate(-137.65 -172.877)" fill="#fff"/>
        <g id="Group_57766" data-name="Group 57766" transform="translate(11.421 10.93)">
          <circle id="Ellipse_755" data-name="Ellipse 755" cx="2.585" cy="2.585" r="2.585" fill="#223a7a"/>
          <circle id="Ellipse_756" data-name="Ellipse 756" cx="2.585" cy="2.585" r="2.585" transform="translate(8.865)" fill="#223a7a"/>
          <circle id="Ellipse_757" data-name="Ellipse 757" cx="2.585" cy="2.585" r="2.585" transform="translate(17.73)" fill="#223a7a"/>
        </g>
      </g>
      <g id="Group_57768" data-name="Group 57768" transform="translate(181.465)">
        <path id="Path_8364" data-name="Path 8364" d="M397.008,96.262H310.737A10.032,10.032,0,0,0,300.7,106.294v40.927a10.032,10.032,0,0,0,10.032,10.032h7.732c.217,3.71-.314,9.229-3.412,16.285a43.349,43.349,0,0,0,18.7-16.285h63.246a10.032,10.032,0,0,0,10.032-10.032V106.294A10.032,10.032,0,0,0,397.008,96.262Z" transform="translate(-300.705 -96.262)" fill="#7f57f1"/>
        <path id="Path_8365" data-name="Path 8365" d="M364.52,120.278H321.73a2.129,2.129,0,0,1-2.129-2.129h0a2.129,2.129,0,0,1,2.129-2.128H364.52a2.129,2.129,0,0,1,2.129,2.128h0A2.129,2.129,0,0,1,364.52,120.278Z" transform="translate(-305.019 -100.773)" fill="#fff"/>
        <path id="Path_8366" data-name="Path 8366" d="M395.2,136.836h-74.3a1.3,1.3,0,0,1-1.3-1.3h0a1.3,1.3,0,0,1,1.3-1.3h74.3a1.3,1.3,0,0,1,1.3,1.3h0A1.3,1.3,0,0,1,395.2,136.836Z" transform="translate(-305.019 -104.93)" fill="#d2e6ff"/>
        <path id="Path_8367" data-name="Path 8367" d="M395.2,146.215h-74.3a1.3,1.3,0,0,1-1.3-1.3h0a1.3,1.3,0,0,1,1.3-1.3h74.3a1.3,1.3,0,0,1,1.3,1.3h0A1.3,1.3,0,0,1,395.2,146.215Z" transform="translate(-305.019 -107.071)" fill="#d2e6ff"/>
        <path id="Path_8368" data-name="Path 8368" d="M378.994,156.215H320.905a1.3,1.3,0,0,1-1.3-1.3h0a1.3,1.3,0,0,1,1.3-1.3h58.089a1.3,1.3,0,0,1,1.3,1.3h0A1.3,1.3,0,0,1,378.994,156.215Z" transform="translate(-305.019 -109.354)" fill="#d2e6ff"/>
        <path id="Path_8369" data-name="Path 8369" d="M410.142,120.278H389.73a2.129,2.129,0,0,1-2.129-2.129h0a2.129,2.129,0,0,1,2.129-2.128h20.412a2.129,2.129,0,0,1,2.128,2.128h0A2.129,2.129,0,0,1,410.142,120.278Z" transform="translate(-320.543 -100.773)" fill="#fff"/>
      </g>
      <g id="Group_57775" data-name="Group 57775" transform="translate(194.897 86.378)">
        <rect id="Rectangle_1814" data-name="Rectangle 1814" width="26.264" height="18.92" rx="2" transform="translate(0 8.329)" fill="#fff"/>
        <g id="Group_57772" data-name="Group 57772" transform="translate(0.099 8.762)">
          <g id="Group_57769" data-name="Group 57769" transform="translate(0)">
            <path id="Path_8370" data-name="Path 8370" d="M331.431,231.4a.577.577,0,0,1-.368-.133L318.449,220.85a.579.579,0,0,1,.737-.892l12.236,10.105,11.924-10.375a.578.578,0,1,1,.759.873l-12.293,10.7A.581.581,0,0,1,331.431,231.4Z" transform="translate(-318.239 -219.547)" fill="#6f7fa9"/>
          </g>
          <g id="Group_57770" data-name="Group 57770" transform="translate(0 7.623)">
            <path id="Path_8371" data-name="Path 8371" d="M318.818,239.858a.579.579,0,0,1-.419-.978l8.821-9.274a.579.579,0,1,1,.838.8l-8.821,9.274A.576.576,0,0,1,318.818,239.858Z" transform="translate(-318.239 -229.425)" fill="#6f7fa9"/>
          </g>
          <g id="Group_57771" data-name="Group 57771" transform="translate(16.121 7.748)">
            <path id="Path_8372" data-name="Path 8372" d="M348.494,239.555a.576.576,0,0,1-.41-.17l-8.787-8.811a.579.579,0,0,1,.82-.817l8.786,8.811a.578.578,0,0,1-.41.987Z" transform="translate(-339.129 -229.587)" fill="#6f7fa9"/>
          </g>
        </g>
        <g id="Group_57774" data-name="Group 57774" transform="translate(19.725)">
          <g id="Group_57773" data-name="Group 57773">
            <circle id="Ellipse_758" data-name="Ellipse 758" cx="7.744" cy="7.744" r="7.744" fill="#ff5f42"/>
          </g>
          <text id="_85" data-name="85" transform="translate(2.301 8.751)" fill="#fff" font-size="7" font-family="Quicksand-Bold, Quicksand" font-weight="700"><tspan x="0" y="0">85</tspan></text>
        </g>
      </g>
      <g id="Group_57782" data-name="Group 57782" transform="translate(251.815 78.019)">
        <g id="Group_57776" data-name="Group 57776">
          <rect id="Rectangle_1815" data-name="Rectangle 1815" width="51.411" height="13.252" rx="4" fill="#583f9e"/>
        </g>
        <g id="Group_57777" data-name="Group 57777" transform="translate(3.234 3.151)">
          <path id="Path_8373" data-name="Path 8373" d="M399.176,208.395a.607.607,0,0,1-.488-.217.723.723,0,0,1-.164-.543l.2-1.716c.014-.043.007-.072-.022-.087a.109.109,0,0,0-.109.022l-1.412,1.02a.663.663,0,0,1-.543.141.675.675,0,0,1-.456-.336.655.655,0,0,1-.076-.608.7.7,0,0,1,.4-.369l1.585-.717c.044-.014.066-.036.066-.065s-.022-.051-.066-.066l-1.585-.717a.646.646,0,0,1-.391-.412.715.715,0,0,1,.066-.565.681.681,0,0,1,.456-.337.711.711,0,0,1,.543.12l1.412,1.043a.109.109,0,0,0,.109.022c.029-.015.035-.044.022-.087l-.2-1.715a.7.7,0,0,1,.174-.543.668.668,0,0,1,.521-.218.646.646,0,0,1,.651.761l-.2,1.715c-.015.043-.008.073.022.087a.109.109,0,0,0,.109-.022l1.411-1.02a.687.687,0,0,1,.554-.142.621.621,0,0,1,.445.337.657.657,0,0,1,.076.608.7.7,0,0,1-.4.369l-1.584.717c-.044.015-.066.036-.066.066s.022.051.066.065l1.584.717a.683.683,0,0,1,.4.412.638.638,0,0,1-.076.565.616.616,0,0,1-.445.336.724.724,0,0,1-.554-.119l-1.411-1.043a.109.109,0,0,0-.109-.022c-.029.015-.036.044-.022.087l.2,1.716a.624.624,0,0,1-.163.543A.7.7,0,0,1,399.176,208.395Z" transform="translate(-396.057 -201.445)" fill="#fff"/>
        </g>
        <g id="Group_57778" data-name="Group 57778" transform="translate(12.591 3.151)">
          <path id="Path_8374" data-name="Path 8374" d="M411.3,208.395a.608.608,0,0,1-.488-.217.726.726,0,0,1-.163-.543l.2-1.716c.015-.043.008-.072-.022-.087a.11.11,0,0,0-.109.022l-1.411,1.02a.664.664,0,0,1-.543.141.677.677,0,0,1-.456-.336.654.654,0,0,1-.076-.608.7.7,0,0,1,.4-.369l1.586-.717c.043-.014.066-.036.066-.065s-.022-.051-.066-.066l-1.586-.717a.645.645,0,0,1-.39-.412.715.715,0,0,1,.065-.565.683.683,0,0,1,.456-.337.712.712,0,0,1,.543.12l1.411,1.043a.11.11,0,0,0,.109.022c.029-.015.036-.044.022-.087l-.2-1.715a.706.706,0,0,1,.174-.543.669.669,0,0,1,.522-.218.645.645,0,0,1,.65.761l-.194,1.715c-.015.043-.008.073.022.087a.11.11,0,0,0,.109-.022l1.411-1.02a.687.687,0,0,1,.554-.142.62.62,0,0,1,.445.337.654.654,0,0,1,.075.608.692.692,0,0,1-.4.369l-1.585.717c-.043.015-.065.036-.065.066s.022.051.065.065l1.585.717a.68.68,0,0,1,.4.412.635.635,0,0,1-.075.565.616.616,0,0,1-.445.336.724.724,0,0,1-.554-.119l-1.411-1.043a.11.11,0,0,0-.109-.022c-.029.015-.036.044-.022.087l.194,1.716a.623.623,0,0,1-.162.543A.7.7,0,0,1,411.3,208.395Z" transform="translate(-408.182 -201.445)" fill="#fff"/>
        </g>
        <g id="Group_57779" data-name="Group 57779" transform="translate(21.947 3.151)">
          <path id="Path_8375" data-name="Path 8375" d="M423.425,208.395a.607.607,0,0,1-.489-.217.727.727,0,0,1-.164-.543l.2-1.716c.014-.043.007-.072-.022-.087a.109.109,0,0,0-.109.022l-1.411,1.02a.665.665,0,0,1-.543.141.675.675,0,0,1-.456-.336.657.657,0,0,1-.076-.608.7.7,0,0,1,.4-.369l1.586-.717c.043-.014.065-.036.065-.065s-.022-.051-.065-.066l-1.586-.717a.643.643,0,0,1-.39-.412.712.712,0,0,1,.065-.565.681.681,0,0,1,.456-.337.713.713,0,0,1,.543.12l1.411,1.043a.109.109,0,0,0,.109.022c.029-.015.035-.044.022-.087l-.2-1.715a.706.706,0,0,1,.174-.543.669.669,0,0,1,.521-.218.645.645,0,0,1,.651.761l-.2,1.715c-.015.043-.008.073.022.087a.11.11,0,0,0,.109-.022l1.411-1.02a.686.686,0,0,1,.554-.142.619.619,0,0,1,.444.337.652.652,0,0,1,.076.608.7.7,0,0,1-.4.369l-1.585.717c-.044.015-.066.036-.066.066s.022.051.066.065l1.585.717a.682.682,0,0,1,.4.412.635.635,0,0,1-.076.565.614.614,0,0,1-.444.336.723.723,0,0,1-.554-.119l-1.411-1.043a.11.11,0,0,0-.109-.022c-.03.015-.037.044-.022.087l.2,1.716a.625.625,0,0,1-.162.543A.7.7,0,0,1,423.425,208.395Z" transform="translate(-420.307 -201.445)" fill="#fff"/>
        </g>
        <g id="Group_57780" data-name="Group 57780" transform="translate(31.304 3.151)">
          <path id="Path_8376" data-name="Path 8376" d="M435.55,208.395a.61.61,0,0,1-.489-.217.726.726,0,0,1-.163-.543l.2-1.716c.014-.043.007-.072-.022-.087a.109.109,0,0,0-.109.022l-1.412,1.02a.663.663,0,0,1-.543.141.675.675,0,0,1-.456-.336.655.655,0,0,1-.076-.608.7.7,0,0,1,.4-.369l1.585-.717c.044-.014.066-.036.066-.065s-.022-.051-.066-.066l-1.585-.717a.646.646,0,0,1-.391-.412.715.715,0,0,1,.066-.565.681.681,0,0,1,.456-.337.711.711,0,0,1,.543.12l1.412,1.043a.109.109,0,0,0,.109.022c.029-.015.035-.044.022-.087l-.2-1.715a.7.7,0,0,1,.174-.543.668.668,0,0,1,.521-.218.646.646,0,0,1,.651.761l-.2,1.715c-.015.043-.008.073.022.087a.109.109,0,0,0,.109-.022l1.411-1.02a.687.687,0,0,1,.554-.142.621.621,0,0,1,.445.337.656.656,0,0,1,.076.608.7.7,0,0,1-.4.369l-1.584.717c-.044.015-.066.036-.066.066s.022.051.066.065l1.584.717a.683.683,0,0,1,.4.412.638.638,0,0,1-.076.565.616.616,0,0,1-.445.336.724.724,0,0,1-.554-.119l-1.411-1.043a.109.109,0,0,0-.109-.022c-.029.015-.036.044-.022.087l.2,1.716a.623.623,0,0,1-.163.543A.7.7,0,0,1,435.55,208.395Z" transform="translate(-432.431 -201.445)" fill="#fff"/>
        </g>
        <g id="Group_57781" data-name="Group 57781" transform="translate(40.66 3.151)">
          <path id="Path_8377" data-name="Path 8377" d="M447.674,208.395a.608.608,0,0,1-.488-.217.726.726,0,0,1-.163-.543l.2-1.716c.015-.043.007-.072-.022-.087a.11.11,0,0,0-.109.022l-1.411,1.02a.664.664,0,0,1-.543.141.677.677,0,0,1-.456-.336.654.654,0,0,1-.076-.608.7.7,0,0,1,.4-.369l1.586-.717c.043-.014.066-.036.066-.065s-.022-.051-.066-.066L445,204.138a.643.643,0,0,1-.39-.412.715.715,0,0,1,.065-.565.682.682,0,0,1,.456-.337.712.712,0,0,1,.543.12l1.411,1.043a.11.11,0,0,0,.109.022c.029-.015.036-.044.022-.087l-.2-1.715a.706.706,0,0,1,.174-.543.669.669,0,0,1,.522-.218.645.645,0,0,1,.651.761l-.194,1.715c-.015.043-.008.073.022.087a.11.11,0,0,0,.109-.022l1.411-1.02a.686.686,0,0,1,.554-.142.621.621,0,0,1,.445.337.654.654,0,0,1,.075.608.692.692,0,0,1-.4.369l-1.585.717c-.043.015-.065.036-.065.066s.022.051.065.065l1.585.717a.68.68,0,0,1,.4.412.635.635,0,0,1-.075.565.616.616,0,0,1-.445.336.723.723,0,0,1-.554-.119l-1.411-1.043a.11.11,0,0,0-.109-.022c-.029.015-.036.044-.022.087l.194,1.716a.623.623,0,0,1-.162.543A.7.7,0,0,1,447.674,208.395Z" transform="translate(-444.556 -201.445)" fill="#b094ff"/>
        </g>
      </g>
    </g>
  </g>
</svg>
