<svg xmlns="http://www.w3.org/2000/svg" width="14.938" height="15.459" viewBox="0 0 14.938 15.459">
  <g id="Icon_feather-copy" data-name="Icon feather-copy" transform="translate(0.75 0.75)">
    <path id="Path_8430" data-name="Path 8430" d="M14.844,13.5h6.047a1.371,1.371,0,0,1,1.344,1.4v6.281a1.371,1.371,0,0,1-1.344,1.4H14.844a1.371,1.371,0,0,1-1.344-1.4V14.9A1.371,1.371,0,0,1,14.844,13.5Z" transform="translate(-8.797 -8.614)" fill="none" stroke="#7f57f1" stroke-linecap="round" stroke-linejoin="round" stroke-width="1.5"/>
    <path id="Path_8431" data-name="Path 8431" d="M5.016,12.073H4.344A1.371,1.371,0,0,1,3,10.677V4.4A1.371,1.371,0,0,1,4.344,3h6.047a1.371,1.371,0,0,1,1.344,1.4v.7" transform="translate(-3 -3)" fill="none" stroke="#7f57f1" stroke-linecap="round" stroke-linejoin="round" stroke-width="1.5"/>
  </g>
</svg>
