<svg xmlns="http://www.w3.org/2000/svg" width="12.748" height="17" viewBox="0 0 12.748 17">
  <g id="bin-with-lid" transform="translate(-76.544)">
    <g id="Group_19028" data-name="Group 19028" transform="translate(76.544)">
      <path id="Path_8296" data-name="Path 8296" d="M108.613,170.8H98.179a.572.572,0,0,0-.572.572v8.931a2.756,2.756,0,0,0,2.753,2.753h6.072a2.756,2.756,0,0,0,2.753-2.753v-8.931A.572.572,0,0,0,108.613,170.8Zm-6.591,8.812a.7.7,0,0,1-1.4,0v-5.369a.7.7,0,0,1,1.4,0Zm4.153,0a.7.7,0,0,1-1.4,0v-5.369a.7.7,0,0,1,1.4,0Z" transform="translate(-97.022 -166.059)" fill="#ff6a6a"/>
      <path id="Path_8297" data-name="Path 8297" d="M87.562.89h-2.49V.674A.674.674,0,0,0,84.4,0H81.437a.674.674,0,0,0-.674.674V.89h-2.49a1.731,1.731,0,0,0-1.729,1.729V3.728a.359.359,0,0,0,.359.359H88.932a.359.359,0,0,0,.359-.359V2.619A1.731,1.731,0,0,0,87.562.89Z" transform="translate(-76.544)" fill="#ff6a6a"/>
    </g>
  </g>
</svg>
