<svg xmlns="http://www.w3.org/2000/svg" width="401.864" height="361.105" viewBox="0 0 401.864 361.105">
  <g id="istockphoto-861576608-612x612" transform="translate(-51.411 -76.962)">
    <path id="Path_8381" data-name="Path 8381" d="M381.491,151.994q12.261,10.755,26.833,25.484a189.581,189.581,0,0,1,16.3,18.632q5.59,7.365,9.147,12.845a129.453,129.453,0,0,1,9.352,17.308,112.742,112.742,0,0,1,4.51,11.536q1.672,5.2,3.209,11.938a97.694,97.694,0,0,1,2.2,28.52,143.74,143.74,0,0,1-2.563,18.932,142.109,142.109,0,0,1-4.234,15.179q-7.317,22.322-15.116,44.479-.032.087-3.13,9.115a232.378,232.378,0,0,1-15.431,35.451,77.157,77.157,0,0,1-8.532,12.521,60.983,60.983,0,0,1-10.9,10.408,65.744,65.744,0,0,1-20.091,9.888,83.738,83.738,0,0,1-14.8,3.036q-4.439.489-15.045.725-10.243.229-20.477-.221-15.234-.67-15.368-.678-11.047-.378-22.078-.938-12.435-.631-37.454-.465-5.378.04-15.762.434-15.3.591-30.617.229-13.192-.308-15.754-.442-6.939-.347-15.731-1.333-7.436-.836-13.349-2.011-5.89-1.175-13.128-3.02a113.466,113.466,0,0,1-19.8-7.041,155.861,155.861,0,0,1-25.445-14.95A91.757,91.757,0,0,1,86.27,397.311,135.068,135.068,0,0,1,72.227,380.4a97.441,97.441,0,0,1-7.948-13.6,122.27,122.27,0,0,1-10.038-29.6A168.919,168.919,0,0,1,51.5,312.351q-.268-6.245.3-15.746.481-8.09.8-16.188.363-9.359.812-15.746.891-12.718,1.845-25.445.7-9.359,2.066-18.632,1.254-8.563,2.2-15.6a315.79,315.79,0,0,1,8.129-40.079,78.916,78.916,0,0,1,2.492-7.751q1.34-3.469,3.249-7.443a65.992,65.992,0,0,1,10.676-15.833,37.012,37.012,0,0,1,7.767-6.395,90.762,90.762,0,0,1,9.967-5.5q4.936-2.287,14.792-6.087,9.462-3.651,18.687-7.869,8.311-3.8,16.669-7.507,6.891-3.051,14.611-5.914Q175.78,91.193,185,87.771a72.4,72.4,0,0,1,8.311-2.523q6.608-1.585,8.429-2.1a165.488,165.488,0,0,1,53.05-5.985,111.478,111.478,0,0,1,15.66,1.8,108.316,108.316,0,0,1,42.871,18.474q13.854,9.9,26.982,20.745,14.169,11.709,28.9,22.724A73.89,73.89,0,0,1,375.4,146.4Q378.652,149.51,381.491,151.994ZM234.444,381.352q.11.749-.426.591a15.338,15.338,0,0,0-4.534-.686q-18.774.331-37.454,2.263a107.369,107.369,0,0,0-19.91,3.84,8.516,8.516,0,0,0-2.184.907q-1.766,1.206.008,2.854a3.308,3.308,0,0,0,1.766.844,560.176,560.176,0,0,0,92.664,5.78q11.268-.244,15.77-.41,9.9-.363,19.121-1.4a87.593,87.593,0,0,0,14.083-2.807q4.226-1.2,4.96-1.474a19.818,19.818,0,0,0,4.621-2.429q1.987-1.4-.268-2.31a37.973,37.973,0,0,0-10-2.539q-18.3-2.09-36.712-2.4-1.743-.032-5.4-.268-2.689-.166-5.385-.126-3.036.055-2.4-3l.079-21.66a.619.619,0,0,1,.623-.615,451.16,451.16,0,0,0,51.725-2.854,1.372,1.372,0,0,0,1.222-1.356l-.008-78.668q0-1.057.528-.142,8.051,14.09,25.2,16.89a.489.489,0,0,1,.378.654,9.954,9.954,0,0,0-.41,6.142,8.774,8.774,0,0,0,3.257,4.8q3.879,2.98,9.517,1.443a.842.842,0,0,1,.978.4l2.981,5.8a.541.541,0,0,1-.126.631q-16.771,15.872-33.819,31.461a4.806,4.806,0,0,0-1.577,5.527q1.411,3.935,5.054,3.99a11.777,11.777,0,0,0,5.354-1.829q37.335-20.548,74.568-41.294a11.723,11.723,0,0,0,3.919-3.059,4.474,4.474,0,0,0-.11-5.551,5.528,5.528,0,0,0-3.383-2.358,9.094,9.094,0,0,0-4.384.229q-20.974,5.8-42.595,11.6a1.527,1.527,0,0,1-1.7-.781l-3.249-5.709a.483.483,0,0,0-.591-.2q-8.461,2.925-12.04-4.865a7.471,7.471,0,0,1,.079-6.387.466.466,0,0,1,.536-.252,1.265,1.265,0,0,0,1.143-.213.421.421,0,0,0-.008-.583q-1.151-1.372.718-2.4,6.734-3.722,11.252,1.963a4.251,4.251,0,0,0,.859.867q1.072.71,1.333-.678a.742.742,0,0,0-.237-.67q-8.082-7.656-16.125-.047a.831.831,0,0,1-.678.221q-16.866-2.421-24.743-17.371a17.328,17.328,0,0,1-1.877-8.4q.315-25.429-.047-62.835a.577.577,0,0,0-.371-.528l-11.591-4.731a.6.6,0,0,1-.363-.56L304,183.337a.852.852,0,0,0-.812-.852l-22.6-1.049a.457.457,0,0,1-.434-.41,49.988,49.988,0,0,0-4.983-18.041,33.2,33.2,0,0,0-10.219-11.173,1.124,1.124,0,0,1-.386-.513q-6.844-18.821-27.384-19.468a53.238,53.238,0,0,0-13.609,1.143q-14.8,3.438-19.973,18.112a52.5,52.5,0,0,0-2.5,9.683,180.717,180.717,0,0,0-1.711,20.154.426.426,0,0,1-.4.418l-28.252,1.128a1.438,1.438,0,0,0-1.561,1.632q.5,52.451,0,105.359,0,.079.11,2.019a5.074,5.074,0,0,1-.954,3.485,86.858,86.858,0,0,1-9.21,10.164,1.6,1.6,0,0,1-1.372.426q-6.221-1.049-9.8,2.586a9.259,9.259,0,0,0-2.791,7.128,10.08,10.08,0,0,0,3.982,7.483.787.787,0,0,1,.166.97l-2.634,5.046a.941.941,0,0,1-1.049.512q-21.526-5.33-43-10.645a10.086,10.086,0,0,0-4.542-.355,5.364,5.364,0,0,0-3.769,3.193q-2.295,5.109,2.846,7.712,3.469,1.758,6.962,3.477.781.386,1.1-.268a.445.445,0,0,0-.213-.568q-3.13-1.806-6.292-3.548a7.387,7.387,0,0,1-2.571-2,4.338,4.338,0,0,1-.654-3.422,4.007,4.007,0,0,1,2.736-3.335,7.611,7.611,0,0,1,3.856.2q21.5,5.165,43.5,10.952a2.91,2.91,0,0,1,1.214.654q16.2,14.5,32.115,28.7a33.329,33.329,0,0,1,3.17,3.028,4.269,4.269,0,0,1,.047,4.849q-1.6,2.854-4.337,2.113a35.1,35.1,0,0,1-3.8-1.885q-30.263-16.1-60.7-31.879a1.488,1.488,0,0,0-.757-.181q-1.955.1.016,1.151,30.917,16.432,61.889,32.746a7.7,7.7,0,0,0,5.993.828,5.672,5.672,0,0,0,3.872-3.777q1.143-3.3-1.979-6.119Q165.246,345.546,148.08,330.3a.566.566,0,0,1-.142-.678l3.564-6.489a.7.7,0,0,0-.2-.923,9.5,9.5,0,0,1-3.422-3.9,8.852,8.852,0,0,1-.757-4.928q.647-5.4,6.379-6.789a7.046,7.046,0,0,1,1.38-.2q3.272-.142.733,1.569a3.687,3.687,0,0,0-.56.457q-1.112,1.143.473.82a1.721,1.721,0,0,0,.686-.315q.891-.639,1.782-1.269a.576.576,0,0,1,.654-.008q5.149,3.627,3.73,9.935-.039.166-.315.946-.4,1.12.647.97a1.735,1.735,0,0,0,1.443-1.309q1.837-7.483-4.282-11.7a.323.323,0,0,1-.032-.5,80.524,80.524,0,0,0,8.587-9.028q.875-1.072.867.315l-.134,44.85a.577.577,0,0,0,.355.56l6.962,2.547a2.535,2.535,0,0,1,1.7,1.656,29,29,0,0,0,2.665,6.284.734.734,0,0,0,.583.371q25.776,1.892,52.419,2.6a.576.576,0,0,1,.56.576Z" transform="translate(0 0)" fill="#f8f7ff"/>
    <path id="Path_8382" data-name="Path 8382" d="M274.083,393.3a29.439,29.439,0,0,0-.237,5.606,1.37,1.37,0,0,1-.189.852.645.645,0,0,1-.962.237.737.737,0,0,1-.323-.623l-.063-2.523-.213-25.177a.414.414,0,0,0-.4-.41l-23.56-.237a.414.414,0,0,0-.418.41l-.181,25.019q-.055,2.066-.205,4.124-.11,1.656-1.128.694a.946.946,0,0,1-.26-.67l-.181-4.542-.032-24.633a.576.576,0,0,0-.56-.576q-26.643-.71-52.419-2.6a.733.733,0,0,1-.583-.371A29.006,29.006,0,0,1,189.5,361.6a2.535,2.535,0,0,0-1.7-1.656l-6.962-2.547a.577.577,0,0,1-.355-.56l.134-44.85q.008-1.388-.867-.315a80.52,80.52,0,0,1-8.587,9.028.323.323,0,0,0,.032.5q6.119,4.218,4.282,11.7a1.735,1.735,0,0,1-1.443,1.309q-1.049.15-.647-.97.276-.781.315-.946,1.419-6.308-3.73-9.935a.576.576,0,0,0-.654.008q-.891.631-1.782,1.269a1.721,1.721,0,0,1-.686.315q-1.585.323-.473-.82a3.69,3.69,0,0,1,.56-.457q2.539-1.711-.733-1.569a7.045,7.045,0,0,0-1.38.2q-5.732,1.388-6.379,6.789a8.852,8.852,0,0,0,.757,4.928,9.5,9.5,0,0,0,3.422,3.9.7.7,0,0,1,.2.923l-3.564,6.489a.565.565,0,0,0,.142.678q17.166,15.242,34.244,30.594,3.122,2.815,1.979,6.119a5.672,5.672,0,0,1-3.872,3.777,7.7,7.7,0,0,1-5.993-.828q-30.972-16.314-61.889-32.746-1.971-1.049-.016-1.151a1.488,1.488,0,0,1,.757.181q30.436,15.778,60.7,31.879a35.086,35.086,0,0,0,3.8,1.884q2.736.741,4.337-2.113a4.269,4.269,0,0,0-.047-4.849,33.325,33.325,0,0,0-3.17-3.028q-15.912-14.2-32.115-28.7a2.91,2.91,0,0,0-1.214-.654q-22-5.788-43.5-10.952a7.611,7.611,0,0,0-3.856-.2,4.007,4.007,0,0,0-2.736,3.335,4.338,4.338,0,0,0,.654,3.422,7.387,7.387,0,0,0,2.571,2q3.162,1.743,6.292,3.548a.445.445,0,0,1,.213.568q-.323.655-1.1.268-3.493-1.719-6.962-3.477-5.141-2.6-2.846-7.712a5.364,5.364,0,0,1,3.769-3.193,10.086,10.086,0,0,1,4.542.355q21.479,5.314,43,10.645a.941.941,0,0,0,1.049-.513l2.634-5.046a.787.787,0,0,0-.166-.97,10.08,10.08,0,0,1-3.982-7.483,9.259,9.259,0,0,1,2.791-7.128q3.58-3.635,9.8-2.586a1.6,1.6,0,0,0,1.372-.426,86.857,86.857,0,0,0,9.21-10.164,5.074,5.074,0,0,0,.954-3.485q-.11-1.94-.11-2.019.5-52.908,0-105.359a1.438,1.438,0,0,1,1.561-1.632L210.3,196.05a.426.426,0,0,0,.4-.418,180.717,180.717,0,0,1,1.711-20.154,52.5,52.5,0,0,1,2.5-9.683q5.173-14.674,19.973-18.112a53.238,53.238,0,0,1,13.609-1.143q20.54.647,27.385,19.468a1.124,1.124,0,0,0,.386.513,33.2,33.2,0,0,1,10.219,11.173,49.989,49.989,0,0,1,4.983,18.041.457.457,0,0,0,.434.41l22.6,1.049a.852.852,0,0,1,.812.852l.047,11.283a.6.6,0,0,0,.363.56l11.591,4.731a.577.577,0,0,1,.371.528q.363,37.406.047,62.835a17.328,17.328,0,0,0,1.877,8.4q7.877,14.95,24.743,17.371a.831.831,0,0,0,.678-.221q8.043-7.609,16.125.047a.742.742,0,0,1,.237.67q-.26,1.388-1.333.678a4.25,4.25,0,0,1-.859-.867q-4.518-5.685-11.252-1.963-1.869,1.033-.718,2.4a.421.421,0,0,1,.008.583,1.265,1.265,0,0,1-1.143.213.466.466,0,0,0-.536.252,7.471,7.471,0,0,0-.079,6.387q3.58,7.79,12.04,4.865a.483.483,0,0,1,.591.2l3.249,5.709a1.527,1.527,0,0,0,1.7.781q21.621-5.8,42.595-11.6a9.093,9.093,0,0,1,4.384-.229,5.528,5.528,0,0,1,3.383,2.358,4.474,4.474,0,0,1,.11,5.551,11.723,11.723,0,0,1-3.919,3.059q-37.233,20.745-74.568,41.294a11.777,11.777,0,0,1-5.354,1.829q-3.643-.055-5.054-3.99a4.806,4.806,0,0,1,1.577-5.527q17.047-15.589,33.819-31.461a.541.541,0,0,0,.126-.631l-2.981-5.8a.841.841,0,0,0-.978-.4q-5.638,1.537-9.517-1.443a8.774,8.774,0,0,1-3.256-4.8,9.954,9.954,0,0,1,.41-6.142.489.489,0,0,0-.378-.654q-17.15-2.8-25.2-16.89-.528-.915-.528.142l.008,78.668a1.372,1.372,0,0,1-1.222,1.356,451.168,451.168,0,0,1-51.725,2.854.619.619,0,0,0-.623.615ZM213.266,196.027l10.629-.173a.489.489,0,0,0,.465-.41q.426-2.295.788-4.6a41.611,41.611,0,0,1,5.993-15.951,22.787,22.787,0,0,1,7.7-7.365,31.276,31.276,0,0,1,9.785-3.619,47.789,47.789,0,0,1,24.507,1.325q.3.095.189-.2-4.92-13-18.482-16.2a41.468,41.468,0,0,0-17.654-.331,27.521,27.521,0,0,0-13.373,6.142,25.964,25.964,0,0,0-7.877,13.318,102.061,102.061,0,0,0-3.115,27.645.438.438,0,0,0,.442.434Zm21.179-23.552q-7.562,9.533-8.074,22.953a.378.378,0,0,0,.386.394l50.858-.039a.438.438,0,0,0,.442-.434,104.43,104.43,0,0,0-2.783-24.317q-.6-2.531-.647-2.634a3.5,3.5,0,0,0-2.145-1.932,43.48,43.48,0,0,0-18.435-2.571,39.6,39.6,0,0,0-10.6,2.082A20.348,20.348,0,0,0,234.445,172.474Zm43.186-2.783q-.512-.473-.371.213a146.468,146.468,0,0,1,2.791,25.271.769.769,0,0,0,.741.757l8.256.189a.343.343,0,0,0,.262-.112.359.359,0,0,0,.092-.275,89.5,89.5,0,0,0-2.082-10.2A31.876,31.876,0,0,0,277.631,169.691Zm-51.718,28.2a163.728,163.728,0,0,0-.647,19.523.438.438,0,0,0,.41.426,438.836,438.836,0,0,0,64.554.386.438.438,0,0,0,.41-.426,104.74,104.74,0,0,0-.954-20.075.485.485,0,0,0-.465-.41q-31.564-.844-62.141-.513a1.191,1.191,0,0,0-1.167,1.088Zm-39.575.891,13.617,4.487a.6.6,0,0,1,.374.362.632.632,0,0,1-.043.529l-5.961,10.345a.273.273,0,0,0-.008.25.255.255,0,0,0,.2.144q14.209,1.8,28.5,2.689a.363.363,0,0,0,.272-.1.4.4,0,0,0,.123-.271l.757-19.594a.6.6,0,0,0-.16-.434.568.568,0,0,0-.416-.181q-18.609.118-37.193,1.309Q185.164,198.4,186.339,198.787Zm109.585,4.029a.723.723,0,0,1,.647-.386,3.809,3.809,0,0,0,.7-.11q6-2.019,12.293-3.619,1.277-.331-.031-.394l-17.434-.891a.332.332,0,0,0-.261.11.4.4,0,0,0-.1.284l.907,19.949a.323.323,0,0,0,.331.315q15.2-.741,30.31-2.815,1.49-.205.087-.765l-27.14-10.881a.579.579,0,0,1-.324-.33.6.6,0,0,1,.017-.467ZM182.617,272.661q-.5,15.076-.134,30.16l-.032,1.7q-.008.7.355.087a50.09,50.09,0,0,0,6.079-16.172,1.787,1.787,0,0,1,.268-.733.574.574,0,0,1,.891-.11.684.684,0,0,1,.252.647,31.846,31.846,0,0,1-2.673,9.706q-2.263,5.086-3.824,8.035l-1.128,1.443a1.2,1.2,0,0,0-.221.725l.047,48.043a.623.623,0,0,0,.355.568,19.645,19.645,0,0,0,5.267,1.9,5.26,5.26,0,0,1,3.5,2.531q.244.363.252-.071l.008-5.267q-.095-45.244.3-90.48.213-23.852-.087-49.037a2.881,2.881,0,0,1,.339-1.443l5.788-10.14a.5.5,0,0,0,.041-.407.445.445,0,0,0-.277-.279l-15.1-4.96a.308.308,0,0,0-.4.284q-.363,10.022-.189,20.051Q182.743,246.049,182.617,272.661ZM299.5,203.36l13.326,5.441a.371.371,0,0,0,.512-.347v-9.17a.386.386,0,0,0-.5-.371l-13.31,3.887Q298.715,203.037,299.5,203.36Zm-105,66.738q-.647,10.109-.623,13.6.315,41.672-.142,83.116a.41.41,0,0,0,.378.418,927.063,927.063,0,0,0,109.365,2.216q9.817-.378,21.833-1.971a.519.519,0,0,0,.5-.434l.11-2.72q.134-13.31-.039-26.612-.11-8.76-.047-15.77.315-36.176,0-72.345-.063-7.049.032-15.77.095-8.256.087-16.8a.662.662,0,0,0-.907-.615,7.6,7.6,0,0,1-1.861.434q-14.627,1.813-30.042,2.421a.528.528,0,0,0-.5.528l-.047,13.286a.587.587,0,0,0,.371.544,3.555,3.555,0,0,1,2.523,3.17,3.424,3.424,0,0,1-1.009,2.76,4.271,4.271,0,0,1-3.02,1.2,3.053,3.053,0,0,1-3.517-2.854,3.578,3.578,0,0,1,2.216-3.9,1.057,1.057,0,0,0,.56-.923l.142-12.963a.7.7,0,0,0-.212-.51.682.682,0,0,0-.513-.191,563.481,563.481,0,0,1-64.5-.434.386.386,0,0,0-.41.386v13.4a1.273,1.273,0,0,0,.67,1.12q3.217,1.743,2.019,4.565a3.374,3.374,0,0,1-1.561,1.711,4.846,4.846,0,0,1-2.365.591,3.186,3.186,0,0,1-2.839-1.506q-1.585-2.452,1.924-5.646a1.821,1.821,0,0,0,.591-1.4l-.26-12.608a.792.792,0,0,0-.71-.773l-28.378-2.839a.355.355,0,0,0-.394.347q-.268,14,.158,20.257A301.983,301.983,0,0,1,194.507,270.1Zm30.383-30.514a2.425,2.425,0,1,0-2.518-1.908,2.247,2.247,0,0,0,2.518,1.908Zm67.343,0a2.438,2.438,0,1,0-2.5-1.865,2.224,2.224,0,0,0,2.5,1.865Zm46.2,124.452a3.664,3.664,0,0,0,4.305.331q38.92-21.416,77.6-43.273a3.8,3.8,0,0,0,2.034-3.241q.3-4.692-3.406-5.322a13.73,13.73,0,0,0-5.283.71q-19.8,5.409-39.63,10.708a7.071,7.071,0,0,0-2.791,1.356q-.93.773-2.381,2.105-26.415,24.175-30.949,28.78Q333.74,360.452,338.432,364.04Z" transform="translate(-11.316 -14.709)" fill="#8979b9"/>
    <path id="Path_8383" data-name="Path 8383" d="M242.205,196.346a.438.438,0,0,1-.442-.434,102.062,102.062,0,0,1,3.115-27.645,25.964,25.964,0,0,1,7.877-13.318,27.521,27.521,0,0,1,13.373-6.142,41.468,41.468,0,0,1,17.654.331q13.562,3.2,18.482,16.2.11.3-.189.2a47.789,47.789,0,0,0-24.507-1.325,31.276,31.276,0,0,0-9.785,3.619,22.787,22.787,0,0,0-7.7,7.365,41.611,41.611,0,0,0-5.993,15.951q-.363,2.31-.788,4.6a.489.489,0,0,1-.465.41Z" transform="translate(-40.255 -15.028)" fill="#f8f7ff"/>
    <path id="Path_8384" data-name="Path 8384" d="M267.024,177.1a20.349,20.349,0,0,1,9-6.5,39.6,39.6,0,0,1,10.6-2.082,43.48,43.48,0,0,1,18.435,2.571,3.5,3.5,0,0,1,2.145,1.932q.047.1.647,2.634a104.431,104.431,0,0,1,2.783,24.317.438.438,0,0,1-.442.434l-50.858.039a.379.379,0,0,1-.386-.394Q259.462,186.637,267.024,177.1Z" transform="translate(-43.895 -19.338)" fill="#f8f7ff"/>
    <path id="Path_8385" data-name="Path 8385" d="M323.852,175.858a31.875,31.875,0,0,1,9.691,15.841,89.5,89.5,0,0,1,2.082,10.2.359.359,0,0,1-.092.275.343.343,0,0,1-.262.112l-8.256-.189a.769.769,0,0,1-.741-.757,146.471,146.471,0,0,0-2.791-25.271Q323.34,175.385,323.852,175.858Z" transform="translate(-57.537 -20.876)" fill="#f8f7ff"/>
    <path id="Path_8386" data-name="Path 8386" d="M258.179,211.363a1.191,1.191,0,0,1,1.167-1.088q30.578-.331,62.141.513a.485.485,0,0,1,.465.41,104.742,104.742,0,0,1,.954,20.075.438.438,0,0,1-.41.426,438.834,438.834,0,0,1-64.554-.386.438.438,0,0,1-.41-.426A163.722,163.722,0,0,1,258.179,211.363Z" transform="translate(-43.581 -28.176)" fill="#d7d5e6"/>
    <path id="Path_8387" data-name="Path 8387" d="M208.026,212.334q-1.175-.386.055-.465,18.585-1.191,37.193-1.309a.568.568,0,0,1,.416.181.6.6,0,0,1,.16.434l-.757,19.594a.4.4,0,0,1-.123.271.363.363,0,0,1-.272.1q-14.287-.891-28.5-2.689a.255.255,0,0,1-.2-.144.273.273,0,0,1,.008-.25l5.961-10.345a.633.633,0,0,0,.043-.529.6.6,0,0,0-.374-.362Z" transform="translate(-33.003 -28.256)" fill="#d7d5e6"/>
    <path id="Path_8388" data-name="Path 8388" d="M346.037,216.471a.6.6,0,0,0-.017.467.579.579,0,0,0,.324.33l27.14,10.881q1.4.56-.087.765-15.108,2.074-30.31,2.815a.324.324,0,0,1-.331-.315l-.907-19.949a.4.4,0,0,1,.1-.284.332.332,0,0,1,.261-.11l17.434.891q1.309.063.032.394-6.292,1.6-12.293,3.619a3.809,3.809,0,0,1-.7.11A.723.723,0,0,0,346.037,216.471Z" transform="translate(-61.429 -28.364)" fill="#d7d5e6"/>
    <path id="Path_8389" data-name="Path 8389" d="M212.623,369.951a13.387,13.387,0,0,1-3.469-1.317q-.095-.055-1.443-.694a3.718,3.718,0,0,1-1.632-1.435,5.328,5.328,0,0,1-.52-2.689q0-27.787-.2-41.57a3.923,3.923,0,0,0-.82-2.168q1.561-2.949,3.824-8.035a31.847,31.847,0,0,0,2.673-9.706.684.684,0,0,0-.252-.647.574.574,0,0,0-.891.11,1.787,1.787,0,0,0-.268.733,50.091,50.091,0,0,1-6.079,16.172q-.363.615-.355-.087l.032-1.7q.142-.781.252-1.569a6.123,6.123,0,0,1,.442-1.53,18.929,18.929,0,0,0,1.443-7.546q-.039-7.428-.371-12.821a1.034,1.034,0,0,0-.308-.662q-.347-.355-.67-.741a2.286,2.286,0,0,1-.5-1.262,33.184,33.184,0,0,1-.15-4.029q.126-26.612-.323-53.224-.173-10.03.189-20.051a.308.308,0,0,1,.4-.284l15.1,4.96a.444.444,0,0,1,.277.279.5.5,0,0,1-.041.407l-5.788,10.14a2.881,2.881,0,0,0-.339,1.443q.3,25.185.087,49.037Q212.528,324.707,212.623,369.951Z" transform="translate(-32.057 -28.813)" fill="#fff"/>
    <path id="Path_8390" data-name="Path 8390" d="M351.6,217.413q-.788-.323.032-.56l13.31-3.887a.386.386,0,0,1,.5.371v9.17a.371.371,0,0,1-.513.347Z" transform="translate(-63.408 -28.762)" fill="#f0f1f1"/>
    <path id="Path_8391" data-name="Path 8391" d="M349.775,382.959a6.725,6.725,0,0,0-2.586-.095q-2.224.371-2.279.371-9.194.654-18.38,1.356-1.869.15-8.658.268-3.627.063-8.673.465-9.423.749-31.666.3-4.282-.087-9.2.047-6.016.158-9.2.047-4.226-.15-24.893-1.7a22.242,22.242,0,0,1-6.828-1.3,11.259,11.259,0,0,1-5.354-4.865,15.918,15.918,0,0,1-1.569-7q-.229-4.968-.15-9.935.126-7.79.1-9.927-.173-17.781-.189-35.569,0-4.069-.237-9.3-.213-4.652-.308-9.3a2.054,2.054,0,0,0-.875-1.333.849.849,0,0,1-.292-.639l-.181-6.111a301.983,301.983,0,0,0-.426-33.511q-.426-6.261-.158-20.257a.355.355,0,0,1,.394-.347l28.378,2.839a.792.792,0,0,1,.71.773l.26,12.608a1.821,1.821,0,0,1-.591,1.4q-3.509,3.193-1.924,5.646a3.186,3.186,0,0,0,2.839,1.506,4.845,4.845,0,0,0,2.365-.591,3.374,3.374,0,0,0,1.561-1.711q1.2-2.823-2.019-4.565a1.273,1.273,0,0,1-.67-1.12V238a.386.386,0,0,1,.41-.386,563.486,563.486,0,0,0,64.5.434.682.682,0,0,1,.513.191.7.7,0,0,1,.212.51l-.142,12.963a1.057,1.057,0,0,1-.56.923,3.578,3.578,0,0,0-2.216,3.9,3.053,3.053,0,0,0,3.517,2.854,4.27,4.27,0,0,0,3.02-1.2,3.424,3.424,0,0,0,1.009-2.76,3.555,3.555,0,0,0-2.523-3.17.587.587,0,0,1-.371-.544l.047-13.286a.528.528,0,0,1,.5-.528q15.415-.607,30.042-2.421a7.6,7.6,0,0,0,1.861-.434.662.662,0,0,1,.907.615q.008,8.547-.087,16.8-.095,8.721-.032,15.77.315,36.168,0,72.345-.063,7.01.047,15.77Q349.909,369.65,349.775,382.959Zm-33.708-84.5a4.061,4.061,0,1,0-4.061,4.061A4.061,4.061,0,0,0,316.066,298.464Zm-55.715,2.192a4.061,4.061,0,1,0-4.061,4.061A4.061,4.061,0,0,0,260.351,300.656Zm45.867,7.451q2.279.875,2.815-.513a3.2,3.2,0,0,0-.166-2.2,12.153,12.153,0,0,0-1-2.137q-.733-1.222-1.12.032l-1.151,3.745a.911.911,0,0,0,.623,1.072Zm18.338,17.023c3,.026,5.47-3.289,5.505-7.4s-2.371-7.472-5.375-7.5-5.47,3.289-5.506,7.4,2.371,7.472,5.375,7.5Zm-80.528,1.963c3.009-.032,5.413-3.386,5.37-7.492s-2.517-7.41-5.526-7.378-5.413,3.386-5.37,7.492,2.517,7.41,5.526,7.378Zm44.819-2.239a39.971,39.971,0,0,1,21.841,9.091,1.829,1.829,0,0,0,.741.394q1.025.237.749-.678a1.509,1.509,0,0,0-.528-.718,39.6,39.6,0,0,0-20.793-8.666q-18.443-2.1-33.574,10.377a4.822,4.822,0,0,0-.97,1.1q-.662,1.033.047.828a1.077,1.077,0,0,0,.442-.276Q270.31,323.16,288.847,324.855Z" transform="translate(-35.164 -33.344)" fill="#fff"/>
    <ellipse id="Ellipse_761" data-name="Ellipse 761" cx="2.397" cy="2.058" rx="2.397" ry="2.058" transform="translate(214.573 219.755) rotate(77.8)" fill="#fff"/>
    <ellipse id="Ellipse_762" data-name="Ellipse 762" cx="2.397" cy="1.995" rx="2.397" ry="1.995" transform="matrix(0.233, 0.972, -0.972, 0.233, 281.738, 219.752)" fill="#fff"/>
    <path id="Path_8392" data-name="Path 8392" d="M218.335,303.25l.181,6.111a.85.85,0,0,0,.292.639,2.054,2.054,0,0,1,.875,1.333q.095,4.652.308,9.3.237,5.228.237,9.3.016,17.789.189,35.569.024,2.137-.1,9.927-.079,4.967.15,9.935a15.918,15.918,0,0,0,1.569,7,11.259,11.259,0,0,0,5.354,4.865,22.242,22.242,0,0,0,6.828,1.3q20.667,1.553,24.893,1.7,3.186.11,9.2-.047,4.92-.134,9.2-.047,22.244.449,31.666-.3,5.046-.4,8.673-.465,6.789-.118,8.658-.268,9.186-.7,18.38-1.356.055,0,2.279-.371a6.726,6.726,0,0,1,2.586.095l-.11,2.72a.519.519,0,0,1-.5.434q-12.017,1.593-21.834,1.971a927.075,927.075,0,0,1-109.365-2.216.41.41,0,0,1-.378-.418q.457-41.443.142-83.115Q217.688,313.359,218.335,303.25Z" transform="translate(-35.143 -47.86)" fill="#d7d5e5"/>
    <path id="Path_8393" data-name="Path 8393" d="M203.382,306.5a33.187,33.187,0,0,0,.15,4.029,2.287,2.287,0,0,0,.5,1.262q.323.386.67.741a1.034,1.034,0,0,1,.308.662q.331,5.393.371,12.821a18.929,18.929,0,0,1-1.443,7.546,6.123,6.123,0,0,0-.442,1.53q-.11.788-.252,1.569Q202.877,321.576,203.382,306.5Z" transform="translate(-32.081 -48.548)" fill="#dddddc"/>
    <circle id="Ellipse_763" data-name="Ellipse 763" cx="4.061" cy="4.061" r="4.061" transform="translate(272.781 261.059)" fill="#7f57f1"/>
    <circle id="Ellipse_764" data-name="Ellipse 764" cx="4.061" cy="4.061" r="4.061" transform="translate(217.066 263.251)" fill="#7f57f1"/>
    <path id="Path_8394" data-name="Path 8394" d="M329.794,326.357a.911.911,0,0,1-.623-1.072l1.151-3.745q.386-1.254,1.12-.032a12.158,12.158,0,0,1,1,2.137,3.2,3.2,0,0,1,.166,2.2Q332.073,327.233,329.794,326.357Z" transform="translate(-58.74 -51.595)" fill="#a9dff5"/>
    <ellipse id="Ellipse_765" data-name="Ellipse 765" cx="7.451" cy="5.441" rx="7.451" ry="5.441" transform="translate(294.963 276.932) rotate(90.5)" fill="#e8e0ff"/>
    <ellipse id="Ellipse_766" data-name="Ellipse 766" cx="7.436" cy="5.449" rx="7.436" ry="5.449" transform="matrix(0.01, 1, -1, 0.01, 214.157, 278.822)" fill="#e8e0ff"/>
    <path id="Path_8395" data-name="Path 8395" d="M299.128,348.825q-18.538-1.7-32.045,11.449a1.077,1.077,0,0,1-.442.276q-.71.2-.047-.828a4.823,4.823,0,0,1,.97-1.1q15.131-12.474,33.574-10.377a39.6,39.6,0,0,1,20.793,8.666,1.509,1.509,0,0,1,.528.718q.276.915-.749.678a1.829,1.829,0,0,1-.741-.394A39.97,39.97,0,0,0,299.128,348.825Z" transform="translate(-45.444 -57.314)" fill="#7f57f1"/>
    <path id="Path_8396" data-name="Path 8396" d="M204.6,348.75a3.923,3.923,0,0,1,.82,2.168q.2,13.783.2,41.57a5.328,5.328,0,0,0,.52,2.689,3.718,3.718,0,0,0,1.632,1.435q1.348.639,1.443.694a13.386,13.386,0,0,0,3.469,1.317l-.008,5.267q-.008.434-.252.071a5.26,5.26,0,0,0-3.5-2.531,19.646,19.646,0,0,1-5.267-1.9.623.623,0,0,1-.355-.568l-.047-48.043a1.2,1.2,0,0,1,.221-.725Z" transform="translate(-32.114 -57.484)" fill="#d7d5e5"/>
    <path id="Path_8397" data-name="Path 8397" d="M400.406,408.558q-4.692-3.588-.5-7.846,4.534-4.6,30.949-28.78,1.451-1.333,2.381-2.105a7.071,7.071,0,0,1,2.791-1.356q19.831-5.3,39.63-10.708a13.73,13.73,0,0,1,5.283-.71q3.706.631,3.406,5.322a3.8,3.8,0,0,1-2.034,3.241q-38.684,21.857-77.6,43.273A3.664,3.664,0,0,1,400.406,408.558Z" transform="translate(-73.289 -59.227)" fill="#f8f7ff"/>
    <path id="Path_8398" data-name="Path 8398" d="M310.565,457.073q-.244-.5-1.2-.544a200.38,200.38,0,0,0-23.576.15l.181-25.019a.414.414,0,0,1,.418-.41l23.56.237a.414.414,0,0,1,.4.41Z" transform="translate(-49.572 -74.933)" fill="#f8f7ff"/>
    <path id="Path_8399" data-name="Path 8399" d="M294.323,459.5q-.639,3.051,2.4,3,2.7-.039,5.385.126,3.659.237,5.4.268,18.411.307,36.712,2.4a37.972,37.972,0,0,1,10,2.539q2.255.907.268,2.31a19.818,19.818,0,0,1-4.621,2.429q-.733.276-4.96,1.474a87.593,87.593,0,0,1-14.083,2.807q-9.225,1.033-19.121,1.4-4.5.166-15.77.41a560.182,560.182,0,0,1-92.664-5.78,3.308,3.308,0,0,1-1.766-.844q-1.774-1.648-.008-2.854a8.516,8.516,0,0,1,2.184-.907,107.369,107.369,0,0,1,19.91-3.84q18.68-1.932,37.454-2.263a15.338,15.338,0,0,1,4.534.686q.536.158.426-.591l.181,4.542a.946.946,0,0,0,.26.67q1.017.962,1.128-.694.15-2.058.205-4.124a200.387,200.387,0,0,1,23.576-.15q.954.047,1.2.544l.063,2.523a.737.737,0,0,0,.323.623.645.645,0,0,0,.962-.237,1.37,1.37,0,0,0,.189-.852A29.431,29.431,0,0,1,294.323,459.5Z" transform="translate(-31.557 -80.908)" fill="#e0def4"/>
  </g>
</svg>
