<svg xmlns="http://www.w3.org/2000/svg" width="7.495" height="13.661" viewBox="0 0 7.495 13.661">
  <path id="ethereum" d="M10.809,11.514,7.743,10.49l3.066-1.533,3.066,1.533Zm0,1.169a.51.51,0,0,1-.182-.03L7.454,11.594a.228.228,0,0,0-.259.347L10.3,16.393a.617.617,0,0,0,1.017,0l3.105-4.452a.228.228,0,0,0-.259-.347l-3.173,1.058a.51.51,0,0,1-.182.03Zm.258-4.872,3.157,1.578a.228.228,0,0,0,.3-.313L11.355,3.319a.628.628,0,0,0-1.093,0L7.091,9.075a.228.228,0,0,0,.3.313l3.157-1.578a.613.613,0,0,1,.516,0Z" transform="translate(-7.062 -3)"/>
</svg>
