<svg id="facebook_black.1" data-name="facebook black.1" xmlns="http://www.w3.org/2000/svg" width="18.441" height="18.441" viewBox="0 0 18.441 18.441">
  <g id="Black">
    <path id="Facebook" d="M209.85,178.441h-8.832A1.018,1.018,0,0,1,200,177.424V161.018A1.018,1.018,0,0,1,201.018,160h16.406a1.018,1.018,0,0,1,1.018,1.018v16.406a1.018,1.018,0,0,1-1.018,1.018h-4.7V171.3h2.4l.359-2.783h-2.756V166.74c0-.806.224-1.355,1.379-1.355h1.474v-2.489a19.706,19.706,0,0,0-2.148-.11,3.353,3.353,0,0,0-3.58,3.679v2.053h-2.4V171.3h2.4v7.142Z" transform="translate(-200 -160)" fill="#9d9ad0" fill-rule="evenodd"/>
  </g>
</svg>
