<svg xmlns="http://www.w3.org/2000/svg" width="16" height="14" viewBox="0 0 16 14">
  <path id="love" d="M11.375,4A4.632,4.632,0,0,0,8,5.465a4.625,4.625,0,0,0-8,3.16c0,4.605,7.427,9.126,7.75,9.3a.5.5,0,0,0,.515,0c.307-.178,7.735-4.7,7.735-9.3A4.63,4.63,0,0,0,11.375,4ZM8,16.911c-1.293-.825-2.709-4.3-2.709-7.906,0-1.58,1.5-5.114-1.758-3.834S6.693,15.618,7.6,16.911a.5.5,0,0,0,.818,0c3.562-2.659,2.623-4.222,4.131-3.746s.876-6.122.875-4.54C13.426,12.228,9.292,16.083,8,16.911Z" transform="translate(0 -4)" fill="#7f57f1"/>
</svg>
