<svg xmlns="http://www.w3.org/2000/svg" width="14.821" height="14" viewBox="0 0 14.821 14">
  <path id="filter" d="M11.042,22a.549.549,0,0,1-.549-.549V16.172L5.4,10.575A1.54,1.54,0,0,1,6.543,8H18.287a1.54,1.54,0,0,1,1.139,2.575l-5.089,5.6v3.083a.549.549,0,0,1-.206.428l-2.745,2.2A.549.549,0,0,1,11.042,22ZM6.543,9.1a.442.442,0,0,0-.327.738L11.449,15.6a.549.549,0,0,1,.143.36v4.348l1.647-1.329v-3.02a.549.549,0,0,1,.143-.371l5.232-5.765a.442.442,0,0,0-.327-.727Z" transform="translate(-5.004 -8)" fill="#7f57f1"/>
</svg>
