<svg xmlns="http://www.w3.org/2000/svg" width="18.238" height="18.238" viewBox="0 0 18.238 18.238">
  <g id="Icon_feather-instagram" data-name="Icon feather-instagram" transform="translate(-2 -2)">
    <path id="Path_8283" data-name="Path 8283" d="M7.06,3h8.119a4.06,4.06,0,0,1,4.06,4.06v8.119a4.06,4.06,0,0,1-4.06,4.06H7.06A4.06,4.06,0,0,1,3,15.179V7.06A4.06,4.06,0,0,1,7.06,3Z" fill="none" stroke="#fff" stroke-linecap="round" stroke-linejoin="round" stroke-width="2"/>
    <path id="Path_8284" data-name="Path 8284" d="M18.525,14.706a3.248,3.248,0,1,1-2.736-2.736A3.248,3.248,0,0,1,18.525,14.706Z" transform="translate(-4.158 -4.099)" fill="none" stroke="#fff" stroke-linecap="round" stroke-linejoin="round" stroke-width="2"/>
    <path id="Path_8285" data-name="Path 8285" d="M26.25,9.75h0" transform="translate(-10.665 -3.096)" fill="none" stroke="#fff" stroke-linecap="round" stroke-linejoin="round" stroke-width="2"/>
  </g>
</svg>
