<?xml version="1.0" encoding="utf-8"?>
<!-- Generator: Adobe Illustrator 26.4.1, SVG Export Plug-In . SVG Version: 6.00 Build 0)  -->
<svg version="1.1" id="Layer_1" xmlns="http://www.w3.org/2000/svg" xmlns:xlink="http://www.w3.org/1999/xlink" x="0px" y="0px"
	 viewBox="0 0 486.2 116.1" style="enable-background:new 0 0 486.2 116.1;" xml:space="preserve">
<style type="text/css">
	.st0{fill:#FFFFFF;}
	.st1{fill:url(#Path_1_00000133492865826935815240000003826517491296861071_);}
	.st2{fill:url(#Path_2_00000003819094769098893500000008141106106465685929_);}
</style>
<g id="Group_8" transform="translate(-304.191 -328.948)">
	<g>
		<g>
			<path id="Path_3_00000127739749013060306850000010698317846724694666_" class="st0" d="M479.4,412.2h-23.7v-53.6H479
				c5,0,9,1.2,11.9,3.6c2.9,2.3,4.6,6,4.4,9.8c0,2.8-1,5.6-2.8,7.7c-1.9,2.1-4.4,3.5-7.2,3.9v0.3c3.4,0.2,6.6,1.6,9.1,4
				c2.3,2.3,3.6,5.6,3.6,8.9c0.2,4.3-1.7,8.5-5,11.2C489.6,410.8,485.1,412.2,479.4,412.2z M466.8,367v14h8.1c3,0,5.3-0.6,6.9-1.9
				c1.7-1.3,2.5-3.2,2.4-5.3c0.1-2-0.7-3.8-2.1-5c-1.8-1.3-3.9-1.9-6.1-1.8L466.8,367L466.8,367z M466.8,403.8h9.7
				c3.2,0,5.8-0.7,7.4-2.1c1.8-1.5,2.6-3.6,2.5-5.9c0.1-2.2-0.9-4.4-2.6-5.8c-1.8-1.3-4.3-2-7.6-2h-9.4V403.8z M503.5,412.2v-39.8
				h10.8v39.8H503.5z M513.1,366.4c-1.1,1.1-2.5,1.7-4.1,1.7s-3-0.6-4.1-1.7c-1.1-1.1-1.7-2.4-1.7-4c0-1.5,0.6-2.9,1.7-4
				c1.1-1.1,2.6-1.7,4.1-1.7c1.6,0,3,0.6,4.1,1.7c1.1,1.1,1.7,2.4,1.7,4C514.7,363.9,514.2,365.3,513.1,366.4L513.1,366.4z
				 M524.5,363.2h10.8v9.2h7.3v8.2h-7.3v19c0,3,1.6,4.5,4.7,4.5c0.9,0,1.8-0.1,2.6-0.2v8c-1.7,0.3-3.4,0.5-5.2,0.5
				c-4.7,0-8-0.9-10.1-2.5c-2-1.7-3-4.5-3-8.4v-20.9h-5.6v-8.2h5.6L524.5,363.2L524.5,363.2z M606.3,412.2h-10v-36.1h-0.3
				l-14.5,35.6h-7L560,376.1h-0.3v36.2h-10v-53.7h13l15.2,38h0.3l15.2-38h12.9V412.2z M628.8,405c2.2,0.1,4.4-0.7,6.2-2.1
				c1.7-1.3,2.5-3.2,2.5-5.3v-2.9l-8.4,0.5c-1.7,0-3.3,0.6-4.7,1.6c-1.1,0.8-1.7,2.1-1.7,3.4c-0.1,1.4,0.6,2.7,1.7,3.5
				C625.7,404.6,627.2,405.1,628.8,405z M625.3,412.9c-3.5,0.1-6.9-1.1-9.6-3.4c-2.5-2.1-3.9-5.4-3.8-8.7c-0.1-3.3,1.4-6.5,4-8.5
				c2.6-2.1,6.5-3.2,11.5-3.5l10.1-0.6v-2.6c0.1-1.7-0.6-3.2-1.8-4.3c-1.4-1.1-3.1-1.7-4.9-1.6c-1.8-0.1-3.4,0.4-4.9,1.4
				c-1.2,0.9-2.1,2.1-2.2,3.6h-10c0.1-3.7,2-7.2,5-9.5c3.1-2.3,7.3-3.6,12.5-3.6c5.1,0,9.2,1.2,12.3,3.6c3,2.2,4.7,5.9,4.6,9.7v27.3
				h-10.4v-6.1h-0.2c-1.1,2.1-2.8,3.8-5,4.9C630.2,412.2,627.8,412.9,625.3,412.9L625.3,412.9z M655,412.2v-39.8h10.4v7.1h0.2
				c0.5-2.2,1.8-4.3,3.5-5.8c1.7-1.4,3.8-2.1,6-2.1c1.1,0,2.1,0.1,3.1,0.4v9.6c-1.3-0.5-2.6-0.7-3.9-0.6c-2.3-0.1-4.6,0.7-6.2,2.3
				c-1.6,1.8-2.3,4.2-2.2,6.5v22.3C665.9,412.2,655,412.2,655,412.2z M694,388.4l13.5-16h12.3l-15.2,17.1l16,22.7h-12.5L696.6,396
				l-2.8,3v13.2H683v-53.6h10.8v29.8H694z M739.7,379.6c-2.2-0.1-4.4,0.8-5.9,2.4c-1.6,1.7-2.5,3.9-2.6,6.2h16.9
				c0-2.3-0.9-4.5-2.4-6.2C744.1,380.4,741.9,379.5,739.7,379.6z M748.2,400h10c-0.6,3.8-2.6,7.2-5.9,9.5c-3.6,2.4-7.9,3.7-12.3,3.6
				c-6.2,0-10.9-1.9-14.4-5.5c-3.4-3.6-5.2-8.7-5.2-15c0-6.3,1.8-11.4,5.2-15.2c3.4-3.8,8.1-5.7,14-5.7c5.8,0,10.3,1.9,13.8,5.5
				s5.1,8.5,5.1,14.5v3.3H731v0.7c-0.1,2.5,0.8,5.1,2.5,6.9c1.8,1.8,4.1,2.7,6.6,2.6c1.8,0,3.6-0.4,5.1-1.4
				C746.7,402.8,747.7,401.6,748.2,400z M766.9,363.2h10.8v9.2h7.3v8.2h-7.3v19c0,3,1.6,4.5,4.7,4.5c0.9,0,1.8-0.1,2.6-0.2v8
				c-1.7,0.3-3.4,0.5-5.2,0.5c-4.7,0-8-0.9-10.1-2.5c-2-1.7-3-4.5-3-8.4v-20.9h-5.6v-8.2h5.6L766.9,363.2z"/>
			<path id="Rectangle_1_00000049911113831760125790000006162253194636664207_" class="st0" d="M367.1,330.5h2.9
				c31.2,0,56.6,25.4,56.6,56.6l0,0c0,31.2-25.4,56.6-56.6,56.6h-2.9c-31.2,0-56.6-25.4-56.6-56.6l0,0
				C310.5,355.9,335.9,330.5,367.1,330.5z"/>
		</g>
		<g id="Group_1_00000122685639658432686110000009524776533380243333_" transform="translate(23.762 22.862)">
			
				<linearGradient id="Path_1_00000023246755449011421680000015858424377275997081_" gradientUnits="userSpaceOnUse" x1="324.9659" y1="362.17" x2="371.4404" y2="362.17">
				<stop  offset="0" style="stop-color:#7F57F1"/>
				<stop  offset="1" style="stop-color:#2C00AA"/>
			</linearGradient>
			
				<path id="Path_1_00000111186398419647263690000001574703080575289785_" style="fill:url(#Path_1_00000023246755449011421680000015858424377275997081_);" d="
				M367.9,366.6c-2.3-1.6-5.2-2.5-8-2.8v-0.6c1.6-0.3,3.1-0.9,4.5-1.8c1.7-1,3-2.2,4.1-3.8c3.1-5.1,2-11.6-2.6-15.3
				c-2.7-1.9-5.9-2.8-9.1-3v-6.2c0-1.8-1.4-3.1-3.1-3.1l0,0h-2.2c-1.8,0-3.1,1.4-3.1,3.1l0,0v6.1h-4.6v-6.1c0-1.8-1.4-3.1-3.1-3.1
				l0,0h-2.2c-1.8,0-3.1,1.4-3.1,3.1l0,0v6.1h-7.1c-1.8,0-3.1,1.4-3.1,3.1v4c0,1.8,1.4,3.1,3.1,3.1l0,0v8.4l20.7-12l-1.7-2.8
				l14.7,1.6l-5.9,13.6l-1.7-2.8l-26.2,14.9v7.2c-1.8,0-3.1,1.4-3.1,3.1v4c0,1.8,1.4,3.1,3.1,3.1h7.1v3.6c0,1.8,1.4,3.1,3.1,3.1h2.2
				c1.8,0,3.1-1.4,3.1-3.1v-3.6h4.6v3.6c0,1.8,1.4,3.1,3.1,3.1h2.2c1.8,0,3.1-1.4,3.1-3.1v-3.7c3.4-0.2,6.7-1.2,9.7-2.9
				c3.3-2.1,4.9-5.2,4.9-9.6C371.4,371,370.3,368.1,367.9,366.6z M353.1,373.4c0.1,1.1-0.2,2.1-0.9,3c-0.7,0.7-1.8,1.1-2.7,1h-6.9
				v-10.7h6.9c1-0.1,2,0.3,2.7,1c0.7,0.9,1,2,0.9,3V373.4z"/>
			
				<linearGradient id="Path_2_00000132768576493682674690000002508454113825649833_" gradientUnits="userSpaceOnUse" x1="309.9454" y1="375.3377" x2="329.7501" y2="375.3377">
				<stop  offset="0" style="stop-color:#7F57F1"/>
				<stop  offset="1" style="stop-color:#2C00AA"/>
			</linearGradient>
			
				<path id="Path_2_00000013184604916239494100000015358088379840981665_" style="fill:url(#Path_2_00000132768576493682674690000002508454113825649833_);" d="
				M328.2,357.6c0,0-15,6.8-17.8,18.3s6.7,18.5,19.3,17.1c0,0-11.3-0.7-13.3-7.8c-2-7.1,11.7-14.9,11.7-14.9V357.6z"/>
		</g>
	</g>
</g>
</svg>
