<svg xmlns="http://www.w3.org/2000/svg" width="26.99" height="23.614" viewBox="0 0 26.99 23.614">
  <path id="love" d="M19.188,4a7.814,7.814,0,0,0-5.693,2.471A7.8,7.8,0,0,0,0,11.8C0,19.57,12.529,27.194,13.073,27.493a.843.843,0,0,0,.869,0c.519-.3,13.048-7.924,13.048-15.692a7.81,7.81,0,0,0-7.8-7.8ZM13.495,25.777c-2.18-1.392-4.569-7.254-4.569-13.335,0-2.665,2.535-8.626-2.966-6.466s5.331,17.621,6.864,19.8a.843.843,0,0,0,1.379,0c6.009-4.485,4.424-7.122,6.968-6.318S22.647,9.134,22.647,11.8C22.647,17.878,15.675,24.381,13.495,25.777Z" transform="translate(0 -4)" fill="#ff5a5a"/>
</svg>
