<svg xmlns="http://www.w3.org/2000/svg" width="26.989" height="23.614" viewBox="0 0 26.989 23.614">
  <path id="love" d="M19.188,4a7.814,7.814,0,0,0-5.693,2.471A7.8,7.8,0,0,0,0,11.8C0,19.57,12.529,27.194,13.073,27.493a.843.843,0,0,0,.869,0c.519-.3,13.048-7.924,13.048-15.692a7.81,7.81,0,0,0-7.8-7.8ZM13.495,25.777C11.314,24.385,1.687,17.883,1.687,11.8A6.115,6.115,0,0,1,12.8,8.289a.843.843,0,0,0,1.379,0A6.115,6.115,0,0,1,25.3,11.8C25.3,17.878,15.675,24.381,13.495,25.777Z" transform="translate(0 -4)"/>
</svg>
