<svg xmlns="http://www.w3.org/2000/svg" width="14.212" height="9.117" viewBox="0 0 14.212 9.117">
  <g id="Group_1" data-name="Group 1" transform="translate(-952.894 -536.134)">
    <path id="Union_1" data-name="Union 1" d="M2.977,7.5A14.166,14.166,0,0,1,.5,5.16a.943.943,0,0,1,0-1.2,14.231,14.231,0,0,1,1.6-1.649L.433,1.345a.5.5,0,0,1,.5-.866L2.946,1.641A7.632,7.632,0,0,1,7.342,0C9.98,0,12.51,1.942,14.18,3.96a.945.945,0,0,1,0,1.2A14.16,14.16,0,0,1,12.3,7.039L13.962,8a.5.5,0,0,1-.5.866L11.431,7.694A7.2,7.2,0,0,1,7.341,9.117,7.4,7.4,0,0,1,2.977,7.5ZM4.3,4.561A3.041,3.041,0,0,0,9.577,6.624l-.78-.45A2.173,2.173,0,0,1,5.218,4.107l-.779-.45A3.044,3.044,0,0,0,4.3,4.561Zm5.825,1.225A3.041,3.041,0,0,0,4.891,2.764l.758.438A2.173,2.173,0,0,1,9.367,5.348Z" transform="translate(952.711 536.134)" fill="#7f57f1"/>
  </g>
</svg>
