<svg id="linkedin" xmlns="http://www.w3.org/2000/svg" width="19.489" height="19.489" viewBox="0 0 19.489 19.489">
  <path id="Path_433" data-name="Path 433" d="M21.08,20.913h0V13.764c0-3.5-.753-6.19-4.841-6.19a4.244,4.244,0,0,0-3.822,2.1h-.057V7.9H8.489V20.912h4.036V14.469c0-1.7.322-3.337,2.422-3.337,2.07,0,2.1,1.936,2.1,3.446v6.335Z" transform="translate(-1.595 -1.423)" fill="#fff"/>
  <path id="Path_434" data-name="Path 434" d="M.4,7.977H4.437V20.989H.4Z" transform="translate(-0.074 -1.499)" fill="#fff"/>
  <path id="Path_435" data-name="Path 435" d="M2.34,0a2.351,2.351,0,1,0,2.34,2.34A2.341,2.341,0,0,0,2.34,0Z" transform="translate(0)" fill="#fff"/>
</svg>
