<svg xmlns="http://www.w3.org/2000/svg" width="157.443" height="32.409" viewBox="0 0 157.443 32.409">
  <g id="Group_19192" data-name="Group 19192" transform="translate(-0.001 0.046)">
    <path id="Path_5005" data-name="Path 5005" d="M22.029,23.095l-2.36-2.284c-.18.044-.3.039-.377.1-3.134,2.456-3.6,2.432-6.4-.366-1.447-1.447-2.924-2.867-4.321-4.362a2.89,2.89,0,1,1,4.076-4.1c5.116,5.047,10.192,10.135,15.277,15.2-5.278,6.167-15.336,6.834-21.883,1.533A16.244,16.244,0,0,1,3.4,6.229,16.417,16.417,0,0,1,25.577,2.907c8.26,5.959,8.12,16.354,4.369,21.655-1.468-1.574-2.86-3.131-4.322-4.621Q20.606,14.826,15.532,9.765a6.684,6.684,0,0,0-9.466-.423C3.257,12.071,3.3,16.1,6.182,19.011c1.7,1.718,3.4,3.433,5.123,5.124,3.337,3.274,7.744,2.906,10.724-1.04M17.257,9.716a5.989,5.989,0,0,0,.479.587c.957.921,1.573,2.041,3.461,1.207,1.988-.878,4.05,1.425,3.4,3.454a7.361,7.361,0,0,1-.509,1.127l2.094,2.771a6.282,6.282,0,0,0,.321-9.221,6.286,6.286,0,0,0-9.249.076" transform="translate(32.39 -0.046) rotate(90)" fill="#7f57f1"/>
    <path id="Path_8308" data-name="Path 8308" d="M12.662-9.36A4.245,4.245,0,0,1,15.21-7.787a4.466,4.466,0,0,1,.962,2.821,4.484,4.484,0,0,1-1.6,3.627A6.745,6.745,0,0,1,10.114,0h-8.5V-18.252H9.828a6.736,6.736,0,0,1,4.355,1.274,4.214,4.214,0,0,1,1.573,3.458,4.177,4.177,0,0,1-.845,2.678A4.37,4.37,0,0,1,12.662-9.36Zm-6.6-1.508H8.97a2.578,2.578,0,0,0,1.677-.481,1.728,1.728,0,0,0,.585-1.417,1.767,1.767,0,0,0-.585-1.43A2.531,2.531,0,0,0,8.97-14.69H6.058Zm3.276,7.28a2.637,2.637,0,0,0,1.729-.507,1.8,1.8,0,0,0,.611-1.469,1.881,1.881,0,0,0-.637-1.508,2.61,2.61,0,0,0-1.755-.546H6.058v4.03Zm23.088-3.9a11.35,11.35,0,0,1-.078,1.3H22.282a3.023,3.023,0,0,0,.871,2.067,2.661,2.661,0,0,0,1.885.715,2.336,2.336,0,0,0,2.314-1.4h4.732a6.493,6.493,0,0,1-1.313,2.574A6.574,6.574,0,0,1,28.392-.442a7.641,7.641,0,0,1-3.2.65A7.782,7.782,0,0,1,21.4-.7a6.473,6.473,0,0,1-2.6-2.6,8.027,8.027,0,0,1-.936-3.952,8.118,8.118,0,0,1,.923-3.952,6.389,6.389,0,0,1,2.587-2.6,7.837,7.837,0,0,1,3.822-.91,7.758,7.758,0,0,1,3.744.884A6.347,6.347,0,0,1,31.5-11.31,7.655,7.655,0,0,1,32.422-7.488Zm-4.55-1.17a2.286,2.286,0,0,0-.78-1.82,2.871,2.871,0,0,0-1.95-.676,2.816,2.816,0,0,0-1.885.65,2.887,2.887,0,0,0-.949,1.846Zm20.566,1.17a11.349,11.349,0,0,1-.078,1.3H38.3a3.023,3.023,0,0,0,.871,2.067,2.661,2.661,0,0,0,1.885.715,2.336,2.336,0,0,0,2.314-1.4H48.1a6.493,6.493,0,0,1-1.313,2.574A6.574,6.574,0,0,1,44.408-.442a7.641,7.641,0,0,1-3.2.65,7.782,7.782,0,0,1-3.8-.91,6.473,6.473,0,0,1-2.6-2.6,8.027,8.027,0,0,1-.936-3.952,8.118,8.118,0,0,1,.923-3.952,6.389,6.389,0,0,1,2.587-2.6,7.837,7.837,0,0,1,3.822-.91,7.758,7.758,0,0,1,3.744.884,6.347,6.347,0,0,1,2.561,2.522A7.655,7.655,0,0,1,48.438-7.488Zm-4.55-1.17a2.286,2.286,0,0,0-.78-1.82,2.871,2.871,0,0,0-1.95-.676,2.816,2.816,0,0,0-1.885.65,2.887,2.887,0,0,0-.949,1.846ZM59.488,0,54.6-6.136V0H50.96V-19.24H54.6V-8.294l4.836-6.11h4.732L57.824-7.176,64.22,0Zm5.72-7.254a8.337,8.337,0,0,1,.871-3.874,6.384,6.384,0,0,1,2.366-2.6,6.3,6.3,0,0,1,3.341-.91,5.869,5.869,0,0,1,2.821.65,5.724,5.724,0,0,1,1.937,1.638V-14.4H80.21V0H76.544V-2.106A5.414,5.414,0,0,1,74.607-.429,5.926,5.926,0,0,1,71.76.234,6.121,6.121,0,0,1,68.445-.7a6.551,6.551,0,0,1-2.366-2.639A8.475,8.475,0,0,1,65.208-7.254ZM76.544-7.2a4.669,4.669,0,0,0-.52-2.275,3.666,3.666,0,0,0-1.4-1.456,3.752,3.752,0,0,0-1.9-.507,3.687,3.687,0,0,0-1.872.494A3.72,3.72,0,0,0,69.459-9.5a4.52,4.52,0,0,0-.533,2.249,4.669,4.669,0,0,0,.533,2.275,3.838,3.838,0,0,0,1.4,1.495,3.567,3.567,0,0,0,1.859.52,3.752,3.752,0,0,0,1.9-.507,3.666,3.666,0,0,0,1.4-1.456A4.669,4.669,0,0,0,76.544-7.2Zm10.868-4.966a5.118,5.118,0,0,1,1.833-1.794,5.1,5.1,0,0,1,2.587-.65v3.822H90.87a3.687,3.687,0,0,0-2.587.806,3.716,3.716,0,0,0-.871,2.808V0h-3.64V-14.4h3.64Zm11.1.754v6.968a1.377,1.377,0,0,0,.351,1.053,1.724,1.724,0,0,0,1.183.325h1.69V0H99.45q-4.6,0-4.6-4.472v-6.942H93.132V-14.4h1.716v-3.562h3.666V-14.4h3.224v2.99Zm19.24,3.9a8.591,8.591,0,0,1-.1,1.4H107.12a3.581,3.581,0,0,0,1.092,2.444,3.367,3.367,0,0,0,2.366.884,2.972,2.972,0,0,0,2.886-1.742h3.926A6.561,6.561,0,0,1,115-1.105,6.983,6.983,0,0,1,110.656.234a7.514,7.514,0,0,1-3.731-.923A6.5,6.5,0,0,1,104.351-3.3a8.006,8.006,0,0,1-.923-3.9,8.156,8.156,0,0,1,.91-3.926,6.35,6.35,0,0,1,2.548-2.6,7.633,7.633,0,0,1,3.77-.91,7.573,7.573,0,0,1,3.679.884,6.222,6.222,0,0,1,2.522,2.509A7.593,7.593,0,0,1,117.754-7.514Zm-3.77-1.04A2.887,2.887,0,0,0,112.97-10.8a3.592,3.592,0,0,0-2.418-.845,3.3,3.3,0,0,0-2.275.819,3.6,3.6,0,0,0-1.131,2.275Z" transform="translate(39.689 26.194)"/>
  </g>
</svg>
