<svg xmlns="http://www.w3.org/2000/svg" width="122" height="122" viewBox="0 0 122 122">
  <g id="Group_57697" data-name="Group 57697" transform="translate(-17.41 -17.41)">
    <circle id="Ellipse_760" data-name="Ellipse 760" cx="61" cy="61" r="61" transform="translate(17.41 17.41)" fill="#f0ebff" opacity="0.374"/>
    <circle id="Ellipse_754" data-name="Ellipse 754" cx="53" cy="53" r="53" transform="translate(25.41 25.41)" fill="#f0ebff"/>
    <circle id="Ellipse_759" data-name="Ellipse 759" cx="53" cy="53" r="53" transform="translate(25.41 25.41)" fill="#f0ebff"/>
    <g id="Group_58398" data-name="Group 58398">
      <circle id="Ellipse_753" data-name="Ellipse 753" cx="42.5" cy="42.5" r="42.5" transform="translate(35.41 35.41)" fill="#7f57f1"/>
      <g id="logout" transform="translate(61.16 61.16)">
        <path id="Path_8378" data-name="Path 8378" d="M11.624.25a21.17,21.17,0,0,0-3.1.121A9.807,9.807,0,0,0,.371,8.523a21.17,21.17,0,0,0-.121,3.1V22.133a21.171,21.171,0,0,0,.121,3.1,9.807,9.807,0,0,0,8.152,8.152,21.164,21.164,0,0,0,3.1.121h1.843a9.769,9.769,0,0,0,5.885-1.961A1.279,1.279,0,1,0,17.816,29.5a7.211,7.211,0,0,1-4.348,1.449H11.762a20.648,20.648,0,0,1-2.839-.089A7.248,7.248,0,0,1,2.9,24.835,20.651,20.651,0,0,1,2.808,22V11.762A20.649,20.649,0,0,1,2.9,8.923,7.249,7.249,0,0,1,8.923,2.9a20.649,20.649,0,0,1,2.839-.089h1.706a7.211,7.211,0,0,1,4.348,1.449,1.279,1.279,0,1,0,1.536-2.046A9.768,9.768,0,0,0,13.468.25Z" transform="translate(0)" fill="#fff"/>
        <path id="Path_8379" data-name="Path 8379" d="M23.379,5.527a1.279,1.279,0,0,0-1.59,2L24.8,9.916c1.2.952,2.023,1.606,2.581,2.157H5.529a1.279,1.279,0,1,0,0,2.558H27.378c-.559.55-1.381,1.2-2.581,2.157L21.79,19.171a1.279,1.279,0,1,0,1.59,2l3.068-2.432a35.207,35.207,0,0,0,2.768-2.331,4.46,4.46,0,0,0,1.421-2.432,3.995,3.995,0,0,0,0-1.258,4.46,4.46,0,0,0-1.421-2.432,35.172,35.172,0,0,0-2.768-2.331Z" transform="translate(2.822 3.528)" fill="#fff"/>
      </g>
    </g>
  </g>
</svg>
