<svg xmlns="http://www.w3.org/2000/svg" width="16" height="20" viewBox="0 0 16 20">
  <g id="bell" transform="translate(-2)">
    <path id="Path_8294" data-name="Path 8294" d="M17.5,13.53a5.358,5.358,0,0,1-1.9-4.1V7.2a5.6,5.6,0,0,0-4.8-5.536V.8A.8.8,0,0,0,9.2.8v.864A5.6,5.6,0,0,0,4.4,7.2V9.43a5.364,5.364,0,0,1-1.91,4.106A1.4,1.4,0,0,0,3.4,16H16.6a1.4,1.4,0,0,0,.9-2.47Z" fill="#7f57f1"/>
    <path id="Path_8295" data-name="Path 8295" d="M11.377,24a3.328,3.328,0,0,0,3.051-3h-6.1A3.328,3.328,0,0,0,11.377,24Z" transform="translate(-1.377 -4)" fill="#7f57f1"/>
  </g>
</svg>
