<svg xmlns="http://www.w3.org/2000/svg" width="15.306" height="15.983" viewBox="0 0 15.306 15.983">
  <path id="Path_8301" data-name="Path 8301" d="M25.54,3.953V3.92c-.017-.034-.017-.068-.034-.1V3.8a.368.368,0,0,0-.068-.084L25.421,3.7c-.017-.017-.051-.034-.068-.051l-.017-.017H25.32L25.3,3.615,18.123.051a.538.538,0,0,0-.456,0l-2.416,1.2,7.214,3.7.017.017c.017,0,.017.017.034.017.017.017.017.034.034.051V9a.177.177,0,0,1-.084.152l-1.453.76a.171.171,0,0,1-.237-.068.127.127,0,0,1-.017-.084V5.93l-7.3-3.767-.017-.017L10.52,3.6l-.017.017h-.017l-.017.017c-.017.017-.051.034-.068.051l-.017.017c-.034.034-.051.068-.084.1v.017a.24.24,0,0,0-.034.1v.034c0,.034-.017.051-.017.084v7.89a.5.5,0,0,0,.287.456l7.113,3.548a.464.464,0,0,0,.338.034l.034-.017c.034,0,.051-.017.084-.034l7.163-3.548a.509.509,0,0,0,.287-.456V4.038A.152.152,0,0,1,25.54,3.953Z" transform="translate(-10.25)" fill="#7f57f1"/>
</svg>
