<svg xmlns="http://www.w3.org/2000/svg" width="16.001" height="16" viewBox="0 0 16.001 16">
  <g id="processing-time" transform="translate(-1.25 -1.251)">
    <path id="Path_8303" data-name="Path 8303" d="M10.323,15.7a1.3,1.3,0,0,1-.649-.174L5.8,13.3a1.3,1.3,0,0,1-.476-1.779l.558-.968A3.275,3.275,0,0,1,8.463,9.186.175.175,0,0,0,8.6,8.953a3.275,3.275,0,0,1-.109-2.915l.558-.968a1.305,1.305,0,0,1,1.779-.477l3.87,2.233a1.3,1.3,0,0,1,.476,1.779l-.558.968a3.275,3.275,0,0,1-2.578,1.363.173.173,0,0,0-.134.232,3.275,3.275,0,0,1,.109,2.916l-.558.968a1.3,1.3,0,0,1-1.128.65ZM10.175,5.536a.186.186,0,0,0-.161.093L9.455,6.6a2.3,2.3,0,0,0,.171,1.924A1.293,1.293,0,0,1,8.6,10.3a2.3,2.3,0,0,0-1.751.813l-.558.968a.186.186,0,0,0,.068.255l3.87,2.233a.188.188,0,0,0,.254-.068l.558-.968A2.3,2.3,0,0,0,10.87,11.6,1.291,1.291,0,0,1,11.9,9.83a2.307,2.307,0,0,0,1.751-.814l.558-.968a.186.186,0,0,0-.068-.255l-3.87-2.233a.188.188,0,0,0-.092-.025Z" transform="translate(-0.998 -0.81)" fill="#2c00aa"/>
    <path id="Path_8304" data-name="Path 8304" d="M17.2,9.809a.558.558,0,0,1-.558-.558A6.884,6.884,0,0,0,4.893,4.383a7.016,7.016,0,0,0-.642.739.558.558,0,1,1-.893-.67A8.362,8.362,0,0,1,4.1,3.6,8,8,0,0,1,17.762,9.251.558.558,0,0,1,17.2,9.809Z" transform="translate(-0.511)" fill="#2c00aa"/>
    <path id="Path_8305" data-name="Path 8305" d="M9.251,19.808a8,8,0,0,1-8-8,.558.558,0,0,1,1.116,0,6.886,6.886,0,0,0,12.393,4.13.559.559,0,0,1,.893.67,8.252,8.252,0,0,1-.744.857,7.951,7.951,0,0,1-5.658,2.344Z" transform="translate(0 -2.557)" fill="#2c00aa"/>
    <path id="Path_8306" data-name="Path 8306" d="M19.57,20.128a.558.558,0,0,1-.558-.558V18.023H17.464a.558.558,0,0,1,0-1.116H19.57a.558.558,0,0,1,.558.558v2.1A.558.558,0,0,1,19.57,20.128Z" transform="translate(-4.004 -4.004)" fill="#2c00aa"/>
    <path id="Path_8307" data-name="Path 8307" d="M5.428,5.986h-2.1a.558.558,0,0,1-.558-.558v-2.1a.558.558,0,1,1,1.116,0V4.87H5.428a.558.558,0,1,1,0,1.116Z" transform="translate(-0.387 -0.387)" fill="#2c00aa"/>
  </g>
</svg>
