<svg id="qr-code" xmlns="http://www.w3.org/2000/svg" width="147.059" height="147.059" viewBox="0 0 147.059 147.059">
  <g id="Group_58499" data-name="Group 58499" transform="translate(14.706 14.706)">
    <g id="Group_58498" data-name="Group 58498">
      <rect id="Rectangle_1821" data-name="Rectangle 1821" width="14.706" height="14.706" fill="#2d264b"/>
    </g>
  </g>
  <g id="Group_58501" data-name="Group 58501" transform="translate(95.588)">
    <g id="Group_58500" data-name="Group 58500">
      <path id="Path_8432" data-name="Path 8432" d="M340.153,0V7.353H332.8v7.353h7.353V44.118h7.353v7.353h-7.353v7.353h14.706V44.118h22.059v7.353h7.353V0Zm36.765,36.765H347.506V7.353h29.412Z" transform="translate(-332.8)" fill="#2d264b"/>
    </g>
  </g>
  <g id="Group_58503" data-name="Group 58503" transform="translate(117.647 14.706)">
    <g id="Group_58502" data-name="Group 58502">
      <rect id="Rectangle_1822" data-name="Rectangle 1822" width="14.706" height="14.706" fill="#2d264b"/>
    </g>
  </g>
  <g id="Group_58505" data-name="Group 58505" transform="translate(14.706 117.647)">
    <g id="Group_58504" data-name="Group 58504">
      <rect id="Rectangle_1823" data-name="Rectangle 1823" width="14.706" height="14.706" fill="#2d264b"/>
    </g>
  </g>
  <g id="Group_58507" data-name="Group 58507" transform="translate(102.941 102.941)">
    <g id="Group_58506" data-name="Group 58506">
      <rect id="Rectangle_1824" data-name="Rectangle 1824" width="7.353" height="7.353" fill="#2d264b"/>
    </g>
  </g>
  <g id="Group_58509" data-name="Group 58509" transform="translate(66.176 139.706)">
    <g id="Group_58508" data-name="Group 58508">
      <rect id="Rectangle_1825" data-name="Rectangle 1825" width="7.353" height="7.353" fill="#2d264b"/>
    </g>
  </g>
  <g id="Group_58511" data-name="Group 58511" transform="translate(73.529 110.294)">
    <g id="Group_58510" data-name="Group 58510">
      <rect id="Rectangle_1826" data-name="Rectangle 1826" width="7.353" height="7.353" fill="#2d264b"/>
    </g>
  </g>
  <g id="Group_58513" data-name="Group 58513" transform="translate(73.529 125)">
    <g id="Group_58512" data-name="Group 58512">
      <rect id="Rectangle_1827" data-name="Rectangle 1827" width="7.353" height="7.353" fill="#2d264b"/>
    </g>
  </g>
  <g id="Group_58515" data-name="Group 58515" transform="translate(139.706 88.235)">
    <g id="Group_58514" data-name="Group 58514">
      <rect id="Rectangle_1828" data-name="Rectangle 1828" width="7.353" height="7.353" fill="#2d264b"/>
    </g>
  </g>
  <g id="Group_58517" data-name="Group 58517" transform="translate(0 88.235)">
    <g id="Group_58516" data-name="Group 58516">
      <rect id="Rectangle_1829" data-name="Rectangle 1829" width="7.353" height="7.353" fill="#2d264b"/>
    </g>
  </g>
  <g id="Group_58519" data-name="Group 58519" transform="translate(0 51.471)">
    <g id="Group_58518" data-name="Group 58518">
      <rect id="Rectangle_1830" data-name="Rectangle 1830" width="7.353" height="7.353" fill="#2d264b"/>
    </g>
  </g>
  <g id="Group_58521" data-name="Group 58521" transform="translate(66.176 7.353)">
    <g id="Group_58520" data-name="Group 58520">
      <path id="Path_8433" data-name="Path 8433" d="M245.106,25.6v7.353H230.4v7.353h22.059V25.6Z" transform="translate(-230.4 -25.6)" fill="#2d264b"/>
    </g>
  </g>
  <g id="Group_58523" data-name="Group 58523" transform="translate(51.471 58.823)">
    <g id="Group_58522" data-name="Group 58522">
      <path id="Path_8434" data-name="Path 8434" d="M267.435,204.8v7.353H252.729v7.353H230.671v-7.353h-7.353v7.353H208.612v7.353h22.059v7.353H208.612v-7.353h-7.353v7.353h-7.353v-7.353h-7.353v7.353H179.2v7.353h14.706v7.353h7.353v-7.353h14.706v7.353h-7.353v7.353h7.353v14.706h7.353v7.353h7.353v-7.353h22.059V256.271h7.353v-7.353h-7.353V234.212H238.023v-7.353h14.706v7.353h7.353v-7.353h7.353v-7.353h7.353V204.8Zm-22.059,36.765v22.059H223.318V241.565Z" transform="translate(-179.2 -204.8)" fill="#2d264b"/>
    </g>
  </g>
  <g id="Group_58525" data-name="Group 58525" transform="translate(80.882 44.118)">
    <g id="Group_58524" data-name="Group 58524">
      <path id="Path_8435" data-name="Path 8435" d="M296.306,153.6h-7.353v7.353H281.6v14.706h7.353v-7.353h7.353v-7.353h7.353V153.6Z" transform="translate(-281.6 -153.6)" fill="#2d264b"/>
    </g>
  </g>
  <g id="Group_58527" data-name="Group 58527" transform="translate(80.882 139.706)">
    <g id="Group_58526" data-name="Group 58526">
      <rect id="Rectangle_1831" data-name="Rectangle 1831" width="14.706" height="7.353" fill="#2d264b"/>
    </g>
  </g>
  <g id="Group_58529" data-name="Group 58529" transform="translate(58.823 7.353)">
    <g id="Group_58528" data-name="Group 58528">
      <rect id="Rectangle_1832" data-name="Rectangle 1832" width="7.353" height="7.353" fill="#2d264b"/>
    </g>
  </g>
  <g id="Group_58531" data-name="Group 58531" transform="translate(117.647 58.823)">
    <g id="Group_58530" data-name="Group 58530">
      <rect id="Rectangle_1833" data-name="Rectangle 1833" width="7.353" height="7.353" fill="#2d264b"/>
    </g>
  </g>
  <g id="Group_58533" data-name="Group 58533" transform="translate(125 51.471)">
    <g id="Group_58532" data-name="Group 58532">
      <rect id="Rectangle_1834" data-name="Rectangle 1834" width="7.353" height="7.353" fill="#2d264b"/>
    </g>
  </g>
  <g id="Group_58535" data-name="Group 58535" transform="translate(29.412 88.235)">
    <g id="Group_58534" data-name="Group 58534">
      <rect id="Rectangle_1835" data-name="Rectangle 1835" width="7.353" height="7.353" fill="#2d264b"/>
    </g>
  </g>
  <g id="Group_58537" data-name="Group 58537" transform="translate(0 95.588)">
    <g id="Group_58536" data-name="Group 58536">
      <path id="Path_8436" data-name="Path 8436" d="M44.118,376.917V347.506h7.353V332.8H44.118v7.353H22.059V332.8H7.353v7.353H0v44.118H58.823v-7.353Zm-7.353,0H7.353V347.506H36.765Z" transform="translate(0 -332.8)" fill="#2d264b"/>
    </g>
  </g>
  <g id="Group_58539" data-name="Group 58539" transform="translate(44.118 44.118)">
    <g id="Group_58538" data-name="Group 58538">
      <rect id="Rectangle_1836" data-name="Rectangle 1836" width="7.353" height="7.353" fill="#2d264b"/>
    </g>
  </g>
  <g id="Group_58541" data-name="Group 58541">
    <g id="Group_58540" data-name="Group 58540">
      <path id="Path_8437" data-name="Path 8437" d="M51.471,0H0V44.118H7.353v7.353h7.353V44.118h7.353v7.353h7.353V44.118H44.118V29.412h7.353V22.059H44.118V7.353H58.823V0ZM36.765,36.765H7.353V7.353H36.765Z" fill="#2d264b"/>
    </g>
  </g>
  <g id="Group_58543" data-name="Group 58543" transform="translate(88.235 22.059)">
    <g id="Group_58542" data-name="Group 58542">
      <rect id="Rectangle_1837" data-name="Rectangle 1837" width="7.353" height="7.353" fill="#2d264b"/>
    </g>
  </g>
  <g id="Group_58545" data-name="Group 58545" transform="translate(73.529)">
    <g id="Group_58544" data-name="Group 58544">
      <rect id="Rectangle_1838" data-name="Rectangle 1838" width="7.353" height="7.353" fill="#2d264b"/>
    </g>
  </g>
  <g id="Group_58547" data-name="Group 58547" transform="translate(0 29.412)">
    <g id="Group_58546" data-name="Group 58546">
      <path id="Path_8438" data-name="Path 8438" d="M88.235,117.106v-7.353H80.882V102.4H73.529v7.353H58.823V102.4H51.471v14.706h7.353v14.706H36.765v-7.353H29.412v7.353H7.353v7.353H22.059v7.353H0v7.353H22.059v7.353h7.353V153.87h7.353v7.353h7.353V153.87H58.823v-7.353H51.471v-7.353H66.176v7.353H80.882v-7.353H73.529v-7.353H66.176V117.106H88.235ZM44.118,146.518H29.412v-7.353H44.118Z" transform="translate(0 -102.4)" fill="#2d264b"/>
    </g>
  </g>
  <g id="Group_58549" data-name="Group 58549" transform="translate(51.471 102.941)">
    <g id="Group_58548" data-name="Group 58548">
      <path id="Path_8439" data-name="Path 8439" d="M193.906,373.106V358.4h-7.353v7.353H179.2v7.353h7.353v7.353H179.2v7.353h14.706v-7.353h7.353v-7.353Z" transform="translate(-179.2 -358.4)" fill="#2d264b"/>
    </g>
  </g>
  <g id="Group_58551" data-name="Group 58551" transform="translate(102.941 125)">
    <g id="Group_58550" data-name="Group 58550">
      <path id="Path_8440" data-name="Path 8440" d="M387.812,442.553V435.2h-7.353v7.353H358.4v7.353h14.706v7.353h7.353v-7.353h14.706v7.353h7.353V442.553Z" transform="translate(-358.4 -435.2)" fill="#2d264b"/>
    </g>
  </g>
  <g id="Group_58553" data-name="Group 58553" transform="translate(132.353 102.941)">
    <g id="Group_58552" data-name="Group 58552">
      <path id="Path_8441" data-name="Path 8441" d="M468.153,358.4v7.353H460.8v7.353h14.706V358.4Z" transform="translate(-460.8 -358.4)" fill="#2d264b"/>
    </g>
  </g>
</svg>
