<svg xmlns="http://www.w3.org/2000/svg" width="13.484" height="13.691" viewBox="0 0 13.484 13.691">
  <g id="shiba-inu" transform="translate(-31.975 -30.501)">
    <g id="Group_58467" data-name="Group 58467" transform="translate(32.204 30.501)">
      <g id="Group_58463" data-name="Group 58463" transform="translate(0 0)">
        <g id="Group_58461" data-name="Group 58461">
          <path id="Path_8417" data-name="Path 8417" d="M39.757,32.512l-4.394,4.295-.129-5.384a.9.9,0,0,1,1.359-.794Z" transform="translate(-35.234 -30.501)" fill="#ffa91a"/>
        </g>
        <g id="Group_58462" data-name="Group 58462" transform="translate(0.851 1.245)">
          <path id="Path_8418" data-name="Path 8418" d="M49.429,49.19,47.41,51.163l-.061-2.547a.372.372,0,0,1,.563-.329Z" transform="translate(-47.349 -48.234)" fill="#ef7816"/>
        </g>
      </g>
      <g id="Group_58466" data-name="Group 58466" transform="translate(8.504 0)">
        <g id="Group_58464" data-name="Group 58464">
          <path id="Path_8419" data-name="Path 8419" d="M156.349,32.512l4.394,4.295.129-5.384a.9.9,0,0,0-1.359-.794Z" transform="translate(-156.349 -30.501)" fill="#ffa91a"/>
        </g>
        <g id="Group_58465" data-name="Group 58465" transform="translate(1.592 1.245)">
          <path id="Path_8420" data-name="Path 8420" d="M179.026,49.19l2.019,1.973.061-2.547a.372.372,0,0,0-.563-.329Z" transform="translate(-179.026 -48.234)" fill="#ef7816"/>
        </g>
      </g>
    </g>
    <g id="Group_58469" data-name="Group 58469" transform="translate(31.975 31.422)">
      <g id="Group_58468" data-name="Group 58468" transform="translate(0 0)">
        <path id="Path_8421" data-name="Path 8421" d="M45.459,50.62c0,3.863-3.019,5.774-6.742,5.774s-6.742-1.911-6.742-5.774a6.747,6.747,0,1,1,13.484,0Z" transform="translate(-31.975 -43.625)" fill="#f1f2f2"/>
      </g>
    </g>
    <g id="Group_58470" data-name="Group 58470" transform="translate(33.154 33.042)">
      <path id="Path_8422" data-name="Path 8422" d="M58.648,66.7a7.118,7.118,0,0,1,1.725,4.673c0,3.863-3.019,5.774-6.742,5.774a7.594,7.594,0,0,1-4.861-1.514,7.026,7.026,0,0,0,5.563,2.216c3.723,0,6.742-1.911,6.742-5.774A7.087,7.087,0,0,0,58.648,66.7Z" transform="translate(-48.771 -66.7)" fill="#e6e7e8"/>
    </g>
    <g id="Group_58471" data-name="Group 58471" transform="translate(33.311 33.208)">
      <path id="Path_8423" data-name="Path 8423" d="M60.915,69.064a7.11,7.11,0,0,1,1.892,4.858c0,3.863-3.019,5.774-6.742,5.774a7.44,7.44,0,0,1-5.054-1.682,7.156,7.156,0,0,0,5.406,2.033c3.723,0,6.742-1.911,6.742-5.774A7.1,7.1,0,0,0,60.915,69.064Z" transform="translate(-51.01 -69.064)" fill="#d1d3d4"/>
    </g>
    <g id="Group_58472" data-name="Group 58472" transform="translate(31.976 31.422)">
      <path id="Path_8424" data-name="Path 8424" d="M45.474,50.522a6.743,6.743,0,1,0-13.482,0,1.378,1.378,0,0,1,.729-.2c1.5,0,1.5,1.97,3.006,1.97s1.5-1.97,3.006-1.97,1.5,1.97,3.006,1.97,1.5-1.97,3.006-1.97A1.377,1.377,0,0,1,45.474,50.522Z" transform="translate(-31.992 -43.625)" fill="#ffa91a"/>
    </g>
    <g id="Group_58474" data-name="Group 58474" transform="translate(32.291 31.703)">
      <g id="Group_58473" data-name="Group 58473" transform="translate(0 0)">
        <path id="Path_8425" data-name="Path 8425" d="M36.62,53.78h-.014a.141.141,0,1,1,.154-.127h0A.14.14,0,0,1,36.62,53.78Zm.079-.556a.109.109,0,0,1-.026,0,.137.137,0,0,1-.09-.058.14.14,0,0,1-.022-.105,6.748,6.748,0,0,1,1.809-3.5,6.271,6.271,0,0,1,7.265-1.307.141.141,0,0,1,.065.187.143.143,0,0,1-.187.065,5.936,5.936,0,0,0-2.608-.6,6.025,6.025,0,0,0-4.334,1.848,6.47,6.47,0,0,0-1.734,3.359A.14.14,0,0,1,36.7,53.224Z" transform="translate(-36.48 -47.621)" fill="#ffc91d"/>
      </g>
    </g>
    <g id="Group_58475" data-name="Group 58475" transform="translate(43.033 33.044)">
      <path id="Path_8426" data-name="Path 8426" d="M191.895,72a7.1,7.1,0,0,0-2.425-5.275,7.151,7.151,0,0,1,1.712,5.08A1.377,1.377,0,0,1,191.895,72Z" transform="translate(-189.47 -66.723)" fill="#f79219"/>
    </g>
    <g id="Group_58478" data-name="Group 58478" transform="translate(35.249 37.125)">
      <g id="Group_58476" data-name="Group 58476" transform="translate(0 0)">
        <circle id="Ellipse_771" data-name="Ellipse 771" cx="0.682" cy="0.682" r="0.682" fill="#58595b"/>
      </g>
      <g id="Group_58477" data-name="Group 58477" transform="translate(5.571 0)">
        <circle id="Ellipse_772" data-name="Ellipse 772" cx="0.682" cy="0.682" r="0.682" fill="#58595b"/>
      </g>
    </g>
    <g id="Group_58479" data-name="Group 58479" transform="translate(38.506 39.896)">
      <path id="Path_8427" data-name="Path 8427" d="M126.5,166.272a1.638,1.638,0,0,1-1.5-1.743.211.211,0,1,1,.421,0,1.221,1.221,0,0,0,1.081,1.322.989.989,0,0,0,.778-.406.211.211,0,1,1,.331.261A1.42,1.42,0,0,1,126.5,166.272Z" transform="translate(-125 -164.319)" fill="#58595b"/>
    </g>
    <g id="Group_58480" data-name="Group 58480" transform="translate(36.272 39.896)">
      <path id="Path_8428" data-name="Path 8428" d="M94.326,166.271a1.42,1.42,0,0,1-1.109-.566.211.211,0,0,1,.331-.261.989.989,0,0,0,.778.406,1.221,1.221,0,0,0,1.081-1.322.211.211,0,1,1,.421,0A1.638,1.638,0,0,1,94.326,166.271Z" transform="translate(-93.172 -164.318)" fill="#58595b"/>
    </g>
    <g id="Group_58485" data-name="Group 58485" transform="translate(36.158 35.738)">
      <g id="Group_58482" data-name="Group 58482" transform="translate(0 0.003)">
        <g id="Group_58481" data-name="Group 58481" transform="translate(0 0)">
          <ellipse id="Ellipse_773" data-name="Ellipse 773" cx="0.384" cy="0.558" rx="0.384" ry="0.558" transform="matrix(0.437, -0.899, 0.899, 0.437, 0, 0.691)" fill="#fff"/>
        </g>
      </g>
      <g id="Group_58484" data-name="Group 58484" transform="translate(3.769 0)">
        <g id="Group_58483" data-name="Group 58483">
          <ellipse id="Ellipse_774" data-name="Ellipse 774" cx="0.558" cy="0.384" rx="0.558" ry="0.384" transform="matrix(0.899, -0.437, 0.437, 0.899, 0, 0.488)" fill="#fff"/>
        </g>
      </g>
    </g>
    <g id="Group_58486" data-name="Group 58486" transform="translate(37.81 38.861)">
      <path id="Path_8429" data-name="Path 8429" d="M116.9,150.14a.907.907,0,0,1-1.814,0c0-.5.406-.561.907-.561S116.9,149.64,116.9,150.14Z" transform="translate(-115.085 -149.579)" fill="#414042"/>
    </g>
  </g>
</svg>
