<svg xmlns="http://www.w3.org/2000/svg" width="12.128" height="14.905" viewBox="0 0 12.128 14.905">
  <path id="stopwatch" d="M10.73,4.582,11.292,4a.6.6,0,0,0,0-.822.545.545,0,0,0-.792,0l-.563.584A5.89,5.89,0,0,0,6.624,2.333V1.163h.541a.571.571,0,0,0,.56-.582A.571.571,0,0,0,7.165,0h-2.2A.571.571,0,0,0,4.4.581a.571.571,0,0,0,.56.582H5.5v1.17A6.208,6.208,0,0,0,0,8.606a6.182,6.182,0,0,0,6.064,6.3,6.182,6.182,0,0,0,6.064-6.3A6.4,6.4,0,0,0,10.73,4.582ZM6.064,13.742A5.049,5.049,0,0,1,1.119,8.606,5.049,5.049,0,0,1,6.064,3.469a5.049,5.049,0,0,1,4.945,5.136A5.049,5.049,0,0,1,6.064,13.742ZM8.658,5.911a.6.6,0,0,1,0,.822L6.46,9.017a.545.545,0,0,1-.792,0,.6.6,0,0,1,0-.822l2.2-2.284A.545.545,0,0,1,8.658,5.911Zm0,0" fill="#7f57f1"/>
</svg>
