<svg xmlns="http://www.w3.org/2000/svg" width="118.143" height="121.791" viewBox="0 0 118.143 121.791">
  <g id="Screenshot_2023-04-10_at_12.42.26_PM" data-name="Screenshot 2023-04-10 at 12.42.26 PM" transform="translate(-56.649 -44.906)">
    <circle id="Ellipse_775" data-name="Ellipse 775" cx="5.242" cy="5.242" r="5.242" transform="translate(115.656 44.906)" fill="#f4b952"/>
    <path id="Path_8446" data-name="Path 8446" d="M313.916,217.6a1.179,1.179,0,0,1-.5-.836q-.1-.644-.164-1.292a14.147,14.147,0,0,0-1.93-5.9q-.205-.348-.644-.959-.486-.677-.645-.962-.626-1.124.214-1.722a1.489,1.489,0,0,1,.949-.291,1.26,1.26,0,0,1,.956.489,17.006,17.006,0,0,1,3.922,10.457,1.1,1.1,0,0,1-.525,1.019A1.353,1.353,0,0,1,313.916,217.6Z" transform="translate(-231.956 -149.898)" fill="#ed7685"/>
    <path id="Path_8447" data-name="Path 8447" d="M802.82,221.9a.961.961,0,0,1-.358-1.444,20.341,20.341,0,0,1,4.392-5.4,10.91,10.91,0,0,1,1.856-1.285,7.992,7.992,0,0,1,2.081-.828,6.117,6.117,0,0,1,4.984,1.023,10.578,10.578,0,0,1,2.359,2.215,22.064,22.064,0,0,1,3.443,6.245,10.356,10.356,0,0,1,.59,2.958,2.268,2.268,0,0,1-.1.775,1,1,0,0,1-.628.715,1.191,1.191,0,0,1-.863-.024,1.043,1.043,0,0,1-.567-.522,1.831,1.831,0,0,1-.126-.72,7.069,7.069,0,0,0-.1-1.228,15.087,15.087,0,0,0-1.292-3.392,20.361,20.361,0,0,0-2.728-4.041,5.147,5.147,0,0,0-3.267-1.825,3.987,3.987,0,0,0-2.272.4,9.444,9.444,0,0,0-2.9,2.121,23.1,23.1,0,0,0-2.662,3.528,3.246,3.246,0,0,1-.638.83A1.025,1.025,0,0,1,802.82,221.9Z" transform="translate(-651.22 -155.981)" fill="#f4b952"/>
    <path id="Path_8448" data-name="Path 8448" d="M273.71,304.346l.037-4.871q.007-.706.007-1.411a10.359,10.359,0,0,1,.091-1.408q.39-2.863.986-5.434a43.012,43.012,0,0,1,6.321-14.466A44.043,44.043,0,0,1,292.515,265.2q1.2-.837,2.5-1.615a44.412,44.412,0,0,1,27.213-6.261q.3.025,1.228.17.411.064.825.1.524.039.824.088a45.412,45.412,0,0,1,7.741,1.933,44.519,44.519,0,0,1,29.475,38.156q.1,1.066.173,2.949.065,1.648,0,2.952a46.107,46.107,0,0,1-2.054,11.455q-.439,1.4-1,2.8a44.619,44.619,0,0,1-27.707,26,42.724,42.724,0,0,1-9.755,1.974q-1.221.1-2.97.086-4.243-.036-5.242-.1-.748-.048-2.83-.393-1.645-.272-2.806-.537a44.364,44.364,0,0,1-26.972-18.58,44.527,44.527,0,0,1-7.177-18.973Q273.767,305.877,273.71,304.346Zm34.835,13.691a3.029,3.029,0,0,0,.808.629,1.021,1.021,0,0,0,.732.092,1.568,1.568,0,0,0,.692-.367q11.282-10.164,28.964-26.175a3.323,3.323,0,0,0,1.163-2.176,3.527,3.527,0,0,0-.541-2.232,3.285,3.285,0,0,0-2.732-1.569,3.441,3.441,0,0,0-1.8.355,7.129,7.129,0,0,0-1.425,1.071q-11.71,10.542-23.428,21.074a3.6,3.6,0,0,1-.547.408.4.4,0,0,1-.4.007,3.035,3.035,0,0,1-.754-.583q-5.464-5.857-10.906-11.736a3.577,3.577,0,0,0-2.194-1.19,3.44,3.44,0,0,0-4.084,3.294,3.53,3.53,0,0,0,1.044,2.571Q303.829,313.039,308.545,318.038Z" transform="translate(-201.265 -193.746)" fill="#7f57f1"/>
    <circle id="Ellipse_776" data-name="Ellipse 776" cx="5.027" cy="5.027" r="5.027" transform="translate(164.738 75.833)" fill="#3171db"/>
    <circle id="Ellipse_777" data-name="Ellipse 777" cx="5.089" cy="5.089" r="5.089" transform="translate(56.649 91.833)" fill="#ed7685"/>
    <path id="Path_8449" data-name="Path 8449" d="M413.736,484.492q-4.716-5-15.412-16.526a3.53,3.53,0,0,1-1.044-2.571,3.44,3.44,0,0,1,4.084-3.294,3.577,3.577,0,0,1,2.194,1.19q5.442,5.879,10.906,11.736a3.035,3.035,0,0,0,.754.583.4.4,0,0,0,.4-.007,3.6,3.6,0,0,0,.547-.408q11.718-10.533,23.428-21.074a7.126,7.126,0,0,1,1.425-1.071,3.441,3.441,0,0,1,1.8-.355,3.285,3.285,0,0,1,2.732,1.569,3.527,3.527,0,0,1,.541,2.232,3.323,3.323,0,0,1-1.163,2.176q-17.682,16.012-28.964,26.175a1.567,1.567,0,0,1-.692.367,1.021,1.021,0,0,1-.732-.092A3.027,3.027,0,0,1,413.736,484.492Z" transform="translate(-306.455 -360.2)" fill="#fff"/>
    <path id="Path_8450" data-name="Path 8450" d="M272.286,541.75l-.037,4.871a.279.279,0,0,1-.1-.187,24.459,24.459,0,0,1-.117-4.207.091.091,0,0,1,.135-.074q.128.07.088-.141A.423.423,0,0,1,272.286,541.75Z" transform="translate(-199.804 -436.02)" fill="#afe6cb"/>
    <circle id="Ellipse_778" data-name="Ellipse 778" cx="5.32" cy="5.32" r="5.32" transform="translate(161.824 131.547)" fill="#b9a4f9"/>
    <path id="Path_8451" data-name="Path 8451" d="M240.667,810.54a1.41,1.41,0,0,0-.885.149.1.1,0,0,0-.046.112,3.174,3.174,0,0,0,.555,1.156,3.583,3.583,0,0,1,.454.8,1.247,1.247,0,0,1,.071.876,1.361,1.361,0,0,1-1.041.879.64.64,0,0,1-.4-.021,1.635,1.635,0,0,1-.715-.527,6.945,6.945,0,0,1-1.173-2.272q-.782-2.6,1.7-3.424a4.481,4.481,0,0,1,1.162-.176,8.09,8.09,0,0,1,1.167.046q1.179.122,1.789.25,1.129.238,2.277.369a7.014,7.014,0,0,0,1.636-.043q.541-.067.607-.483a1.571,1.571,0,0,0-.11-.657,6.951,6.951,0,0,0-1.063-2.085,1.614,1.614,0,0,1-.373-1.188,1.2,1.2,0,0,1,.61-.941,1.035,1.035,0,0,1,1.065-.015,2.112,2.112,0,0,1,.7.69,11.73,11.73,0,0,1,1.166,2.078,5.857,5.857,0,0,1,.448,1.822,2.7,2.7,0,0,1-1.572,2.891,4.774,4.774,0,0,1-1.627.455,11.189,11.189,0,0,1-3-.232Q242.784,810.808,240.667,810.54Z" transform="translate(-170.27 -658.586)" fill="#b9a4f9"/>
    <path id="Path_8452" data-name="Path 8452" d="M773.169,827.161a9.227,9.227,0,0,1-3.009-5.306,7.56,7.56,0,0,1,.009-2.793,2.245,2.245,0,0,1,.2-.62,1.175,1.175,0,0,1,.424-.47,1.2,1.2,0,0,1,1.495.143.856.856,0,0,1,.344.66,7.058,7.058,0,0,1-.04,1.068,5.434,5.434,0,0,0-.039,1.06,6.633,6.633,0,0,0,2.168,4.294,10.285,10.285,0,0,0,1.953,1.468q.147.083.474.317a1.481,1.481,0,0,1,.4.4,1.143,1.143,0,0,1-.317,1.683,1.09,1.09,0,0,1-1.3.054A15.358,15.358,0,0,1,773.169,827.161Z" transform="translate(-623.775 -670.992)" fill="#25325f"/>
    <circle id="Ellipse_779" data-name="Ellipse 779" cx="5.248" cy="5.248" r="5.248" transform="translate(89.954 156.2)" fill="#3171db"/>
  </g>
</svg>
