<svg xmlns="http://www.w3.org/2000/svg" width="16.002" height="16.001" viewBox="0 0 16.002 16.001">
  <g id="Layer_2" data-name="Layer 2" transform="translate(-0.989 -0.999)">
    <path id="Path_8290" data-name="Path 8290" d="M13.2,11.4a3.2,3.2,0,1,1,3.2-3.2,3.2,3.2,0,0,1-3.2,3.2Zm0-5.334A2.133,2.133,0,1,0,15.334,8.2,2.133,2.133,0,0,0,13.2,6.067Z" transform="translate(-4.205 -1.867)" fill="#7f57f1"/>
    <path id="Path_8291" data-name="Path 8291" d="M10.349,25.289a8,8,0,0,1-6.182-2.928L3.89,22.02l.277-.336a8,8,0,0,1,12.363,0l.277.336-.277.341A8,8,0,0,1,10.349,25.289ZM5.287,22.025a6.934,6.934,0,0,0,10.134,0,6.934,6.934,0,0,0-10.134,0Z" transform="translate(-1.354 -8.289)" fill="#7f57f1"/>
    <path id="Path_8292" data-name="Path 8292" d="M9,17a8,8,0,1,1,6.182-2.928A8,8,0,0,1,9,17ZM9,2.066A6.934,6.934,0,1,0,15.929,9,6.934,6.934,0,0,0,9,2.066Z" transform="translate(0)" fill="#7f57f1"/>
    <path id="Path_8293" data-name="Path 8293" d="M5.18,22.429s5.371,6,10.838.6l.7-.6s-4.566-4.736-9.2-1.893Z" transform="translate(-1.956 -8.692)" fill="#7f57f1"/>
    <circle id="Ellipse_52" data-name="Ellipse 52" cx="2.667" cy="2.667" r="2.667" transform="translate(6.328 3.666)" fill="#7f57f1"/>
  </g>
</svg>
