<svg xmlns="http://www.w3.org/2000/svg" width="14.109" height="9.12" viewBox="0 0 14.109 9.12">
  <g id="view" transform="translate(0 -91.866)">
    <circle id="Ellipse_55" data-name="Ellipse 55" cx="2.172" cy="2.172" r="2.172" transform="translate(4.883 94.255)" fill="#7f57f1"/>
    <path id="Path_8302" data-name="Path 8302" d="M13.893,95.826c-1.67-2.018-4.2-3.96-6.838-3.96S1.885,93.809.217,95.826a.944.944,0,0,0,0,1.2,14.14,14.14,0,0,0,2.473,2.34c2.958,2.153,5.764,2.158,8.729,0a14.14,14.14,0,0,0,2.473-2.34A.945.945,0,0,0,13.893,95.826ZM7.055,93.386a3.041,3.041,0,1,1-3.041,3.041A3.044,3.044,0,0,1,7.055,93.386Z" fill="#7f57f1"/>
  </g>
</svg>
